<svg xmlns="http://www.w3.org/2000/svg" xmlns:xlink="http://www.w3.org/1999/xlink" contentStyleType="text/css" height="633px" preserveAspectRatio="none" style="width:810px;height:633px;background:#FFFFFF;" version="1.1" viewBox="0 0 810 633" width="810px" zoomAndPan="magnify"><title>Sistema de Biblioteca - Casos de Uso</title><defs/><g><text fill="#000000" font-family="sans-serif" font-size="14" font-weight="bold" lengthAdjust="spacing" textLength="249.7441" x="273.1279" y="24.5332">Sistema de Biblioteca - Casos de Uso</text><!--cluster Sistema--><g id="cluster_Sistema"><rect fill="none" height="499" rx="2.5" ry="2.5" style="stroke:#181818;stroke-width:1;" width="503" x="301" y="93.7294"/><text fill="#000000" font-family="sans-serif" font-size="14" font-weight="bold" lengthAdjust="spacing" textLength="53.6963" x="525.6519" y="110.2626">Sistema</text></g><g id="elem_login"><ellipse cx="405.0508" cy="280.8427" fill="#F1F1F1" rx="64.5508" ry="15.6133" style="stroke:#181818;stroke-width:0.5;"/><text fill="#000000" font-family="sans-serif" font-size="14" lengthAdjust="spacing" textLength="73.9307" x="365.0855" y="285.3593">Fazer Login</text></g><g id="elem_listar"><ellipse cx="405.1874" cy="214.8497" fill="#F1F1F1" rx="65.6874" ry="15.6203" style="stroke:#181818;stroke-width:0.5;"/><text fill="#000000" font-family="sans-serif" font-size="14" lengthAdjust="spacing" textLength="75.4688" x="364.453" y="219.3663">Listar Livros</text></g><g id="elem_emprestar"><ellipse cx="405.0397" cy="146.9373" fill="#F1F1F1" rx="74.0397" ry="17.2079" style="stroke:#181818;stroke-width:0.5;"/><text fill="#000000" font-family="sans-serif" font-size="14" lengthAdjust="spacing" textLength="98.8066" x="352.6364" y="151.4539">Emprestar Livro</text></g><g id="elem_status"><ellipse cx="699.0777" cy="222.8449" fill="#F1F1F1" rx="76.0777" ry="17.6155" style="stroke:#181818;stroke-width:0.5;"/><text fill="#000000" font-family="sans-serif" font-size="14" lengthAdjust="spacing" textLength="104.2686" x="644.0672" y="227.3331">Visualizar Status</text></g><g id="elem_logout"><ellipse cx="404.7566" cy="347.7807" fill="#F1F1F1" rx="68.2566" ry="16.0513" style="stroke:#181818;stroke-width:0.5;"/><text fill="#000000" font-family="sans-serif" font-size="14" lengthAdjust="spacing" textLength="82.4961" x="360.5085" y="352.2973">Fazer Logout</text></g><g id="elem_adicionar"><ellipse cx="404.7823" cy="415.4858" fill="#F1F1F1" rx="71.7823" ry="16.7565" style="stroke:#181818;stroke-width:0.5;"/><text fill="#000000" font-family="sans-serif" font-size="14" lengthAdjust="spacing" textLength="92.5996" x="355.4825" y="420.0024">Adicionar Livro</text></g><g id="elem_devolver"><ellipse cx="404.8456" cy="487.6985" fill="#F1F1F1" rx="87.8456" ry="19.9691" style="stroke:#181818;stroke-width:0.5;"/><text fill="#000000" font-family="sans-serif" font-size="14" lengthAdjust="spacing" textLength="133.0615" x="338.3148" y="491.427">Processar Devolucao</text></g><g id="elem_logs"><ellipse cx="405.1249" cy="559.6544" fill="#F1F1F1" rx="72.6249" ry="16.925" style="stroke:#181818;stroke-width:0.5;"/><text fill="#000000" font-family="sans-serif" font-size="14" lengthAdjust="spacing" textLength="94.9375" x="354.6562" y="564.171">Visualizar Logs</text></g><g id="elem_ativos"><ellipse cx="698.8791" cy="549.9052" fill="#F1F1F1" rx="83.8791" ry="19.1758" style="stroke:#181818;stroke-width:0.5;"/><text fill="#000000" font-family="sans-serif" font-size="14" lengthAdjust="spacing" textLength="123.6963" x="637.031" y="553.6337">Emprestimos Ativos</text></g><g id="elem_validar"><ellipse cx="698.9153" cy="294.7124" fill="#F1F1F1" rx="82.9153" ry="18.9831" style="stroke:#181818;stroke-width:0.5;"/><text fill="#000000" font-family="sans-serif" font-size="14" lengthAdjust="spacing" textLength="121.3926" x="638.219" y="298.441">Validar Credenciais</text></g><g id="elem_controle"><ellipse cx="698.7665" cy="366.5827" fill="#F1F1F1" rx="77.2665" ry="17.8533" style="stroke:#181818;stroke-width:0.5;"/><text fill="#000000" font-family="sans-serif" font-size="14" lengthAdjust="spacing" textLength="107.3789" x="642.808" y="370.9265">Controlar Acesso</text></g><g id="elem_registrar"><ellipse cx="698.8323" cy="149.8958" fill="#F1F1F1" rx="88.8323" ry="20.1665" style="stroke:#181818;stroke-width:0.5;"/><text fill="#000000" font-family="sans-serif" font-size="14" lengthAdjust="spacing" textLength="135.3652" x="631.1497" y="153.6244">Registrar Emprestimo</text></g><!--entity user--><g id="elem_user"><ellipse cx="203.5688" cy="88.2294" fill="#F1F1F1" rx="8" ry="8" style="stroke:#181818;stroke-width:0.5;"/><path d="M203.5688,96.2294 L203.5688,123.2294 M190.5688,104.2294 L216.5688,104.2294 M203.5688,123.2294 L190.5688,138.2294 M203.5688,123.2294 L216.5688,138.2294 " fill="none" style="stroke:#181818;stroke-width:0.5;"/><text fill="#000000" font-family="sans-serif" font-size="14" lengthAdjust="spacing" textLength="101.1377" x="153" y="154.2626">Usuario Comum</text></g><!--entity admin--><g id="elem_admin"><ellipse cx="49.1826" cy="358.2294" fill="#F1F1F1" rx="8" ry="8" style="stroke:#181818;stroke-width:0.5;"/><path d="M49.1826,366.2294 L49.1826,393.2294 M36.1826,374.2294 L62.1826,374.2294 M49.1826,393.2294 L36.1826,408.2294 M49.1826,393.2294 L62.1826,408.2294 " fill="none" style="stroke:#181818;stroke-width:0.5;"/><text fill="#000000" font-family="sans-serif" font-size="14" lengthAdjust="spacing" textLength="86.3652" x="6" y="424.2626">Administrador</text></g><!--link user to login--><g id="link_user_login"><path d="M238.46,157.9594 C254.11,177.4194 272.03,201.8194 285,225.7294 C289.96,234.8794 285.43,240.5994 293,247.7294 C307.49,261.3794 321.5481,267.9485 340.4881,272.6685 " fill="none" id="user-to-login" style="stroke:#181818;stroke-width:1;"/><polygon fill="#181818" points="346.31,274.1194,338.5443,268.0618,341.4584,272.9103,336.6098,275.8244,346.31,274.1194" style="stroke:#181818;stroke-width:1;"/></g><!--link user to listar--><g id="link_user_listar"><path d="M254.16,130.2094 C265.6,134.9194 276.81,141.5094 285,150.7294 C294.17,161.0394 283.42,170.7994 293,180.7294 C306.78,195.0194 320.5774,201.8616 339.4874,206.7016 " fill="none" id="user-to-listar" style="stroke:#181818;stroke-width:1;"/><polygon fill="#181818" points="345.3,208.1894,337.5729,202.0827,340.4561,206.9496,335.5892,209.8329,345.3,208.1894" style="stroke:#181818;stroke-width:1;"/></g><!--link user to emprestar--><g id="link_user_emprestar"><path d="M254.04,112.2494 C263.95,111.1994 274.29,110.2794 284,109.7294 C315.78,107.9394 344.8824,117.7264 368.7224,128.6164 " fill="none" id="user-to-emprestar" style="stroke:#181818;stroke-width:1;"/><polygon fill="#181818" points="374.18,131.1094,367.6556,123.7315,369.632,129.0319,364.3317,131.0083,374.18,131.1094" style="stroke:#181818;stroke-width:1;"/></g><!--link user to status--><g id="link_user_status"><path d="M254.25,88.7294 C264.13,85.1994 274.66,83.0494 285,83.7294 C416.97,92.4194 473.29,44.6094 580,122.7294 C605.35,141.2894 587.24,165.0794 610,186.7294 C620.64,196.8594 628.9432,202.0759 642.5232,207.4659 " fill="none" id="user-to-status" style="stroke:#181818;stroke-width:1;"/><polygon fill="#181818" points="648.1,209.6794,641.2105,202.6413,643.4527,207.8348,638.2592,210.077,648.1,209.6794" style="stroke:#181818;stroke-width:1;"/></g><!--link user to logout--><g id="link_user_logout"><path d="M212.15,157.7894 C222.77,201.8294 246.22,272.6194 293,313.7294 C307.68,326.6394 321.3844,333.0866 339.9344,338.0566 " fill="none" id="user-to-logout" style="stroke:#181818;stroke-width:1;"/><polygon fill="#181818" points="345.73,339.6094,338.0718,333.4165,340.9003,338.3154,336.0014,341.1439,345.73,339.6094" style="stroke:#181818;stroke-width:1;"/></g><!--link admin to login--><g id="link_admin_login"><path d="M92.24,363.1994 C101.82,357.9994 112.1,352.8594 122,348.7294 C197.77,317.1494 285.4603,299.198 343.4703,289.608 " fill="none" id="admin-to-login" style="stroke:#181818;stroke-width:1;"/><polygon fill="#181818" points="349.39,288.6294,339.8581,286.1509,344.457,289.4449,341.1629,294.0437,349.39,288.6294" style="stroke:#181818;stroke-width:1;"/></g><!--link admin to listar--><g id="link_admin_listar"><path d="M86.09,349.5494 C104.6,331.3594 128.41,310.7194 153,296.7294 C217.95,259.7794 296.0996,237.9709 348.5596,226.0309 " fill="none" id="admin-to-listar" style="stroke:#181818;stroke-width:1;"/><polygon fill="#181818" points="354.41,224.6994,344.7467,222.7965,349.5347,225.809,346.5221,230.597,354.41,224.6994" style="stroke:#181818;stroke-width:1;"/></g><!--link admin to adicionar--><g id="link_admin_adicionar"><path d="M92.35,391.9594 C152.73,396.5694 258.2074,404.613 330.1774,410.103 " fill="none" id="admin-to-adicionar" style="stroke:#181818;stroke-width:1;"/><polygon fill="#181818" points="336.16,410.5594,327.4903,405.8864,331.1745,410.1791,326.8818,413.8632,336.16,410.5594" style="stroke:#181818;stroke-width:1;"/></g><!--link admin to devolver--><g id="link_admin_devolver"><path d="M92.35,400.5694 C156.4,418.4894 272.1518,450.8533 343.0518,470.6833 " fill="none" id="admin-to-devolver" style="stroke:#181818;stroke-width:1;"/><polygon fill="#181818" points="348.83,472.2994,341.24,466.023,344.0148,470.9526,339.0852,473.7274,348.83,472.2994" style="stroke:#181818;stroke-width:1;"/></g><!--link admin to logs--><g id="link_admin_logs"><path d="M92.29,416.6394 C139.54,446.8094 219.14,494.5894 293,524.7294 C313.67,533.1594 331.4321,539.1184 351.4721,545.1184 " fill="none" id="admin-to-logs" style="stroke:#181818;stroke-width:1;"/><polygon fill="#181818" points="357.22,546.8394,349.7454,540.426,352.4301,545.4053,347.4509,548.0899,357.22,546.8394" style="stroke:#181818;stroke-width:1;"/></g><!--link admin to ativos--><g id="link_admin_ativos"><path d="M75.74,427.8694 C94.82,454.8294 122.68,490.2494 153,515.7294 C207.53,561.5494 224.06,575.8194 293,593.7294 C419.81,626.6694 569.4345,590.6611 645.6145,567.2611 " fill="none" id="admin-to-ativos" style="stroke:#181818;stroke-width:1;"/><polygon fill="#181818" points="651.35,565.4994,641.5722,564.3183,646.5704,566.9675,643.9212,571.9657,651.35,565.4994" style="stroke:#181818;stroke-width:1;"/></g><!--link admin to logout--><g id="link_admin_logout"><path d="M92.14,379.8294 C101.92,377.9594 112.3,376.1294 122,374.7294 C196.11,363.9994 275.8271,356.9425 333.1271,352.6025 " fill="none" id="admin-to-logout" style="stroke:#181818;stroke-width:1;"/><polygon fill="#181818" points="339.11,352.1494,329.8336,348.8405,334.1243,352.527,330.4378,356.8177,339.11,352.1494" style="stroke:#181818;stroke-width:1;"/></g><!--link login to validar--><g id="link_login_validar"><path d="M468.64,283.7294 C512.21,285.8194 564.6869,288.3424 611.6769,290.5924 " fill="none" id="login-to-validar" style="stroke:#181818;stroke-width:1;stroke-dasharray:7.0,7.0;"/><polygon fill="#181818" points="617.67,290.8794,608.8716,286.4535,612.6757,290.6402,608.489,294.4443,617.67,290.8794" style="stroke:#181818;stroke-width:1;"/><text fill="#000000" font-family="sans-serif" font-size="13" lengthAdjust="spacing" textLength="55.6563" x="524" y="283.2245">&#171;include&#187;</text></g><!--link login to controle--><g id="link_login_controle"><path d="M446.05,292.7894 C468.64,299.5694 497.38,308.1594 523,315.7294 C565.79,328.3694 608.7777,340.8772 643.9277,351.0772 " fill="none" id="login-to-controle" style="stroke:#181818;stroke-width:1;stroke-dasharray:7.0,7.0;"/><polygon fill="#181818" points="649.69,352.7494,642.1613,346.3997,644.8881,351.3559,639.9318,354.0827,649.69,352.7494" style="stroke:#181818;stroke-width:1;"/><text fill="#000000" font-family="sans-serif" font-size="13" lengthAdjust="spacing" textLength="55.6563" x="524" y="312.2245">&#171;include&#187;</text></g><!--link emprestar to registrar--><g id="link_emprestar_registrar"><path d="M478.93,147.4794 C518.63,147.8894 562.0303,148.3277 603.8803,148.7577 " fill="none" id="emprestar-to-registrar" style="stroke:#181818;stroke-width:1;stroke-dasharray:7.0,7.0;"/><polygon fill="#181818" points="609.88,148.8194,600.9216,144.7271,604.8803,148.768,600.8394,152.7267,609.88,148.8194" style="stroke:#181818;stroke-width:1;"/><text fill="#000000" font-family="sans-serif" font-size="13" lengthAdjust="spacing" textLength="55.6563" x="524" y="145.2245">&#171;include&#187;</text></g><!--link listar to status--><g id="link_listar_status"><path d="M470.08,216.4894 C515.32,217.7294 570.0923,219.2249 617.4923,220.5249 " fill="none" id="listar-to-status" style="stroke:#181818;stroke-width:1;stroke-dasharray:7.0,7.0;"/><polygon fill="#181818" points="623.49,220.6894,614.603,216.4441,618.4919,220.5523,614.3837,224.4411,623.49,220.6894" style="stroke:#181818;stroke-width:1;"/><text fill="#000000" font-family="sans-serif" font-size="13" lengthAdjust="spacing" textLength="53.4917" x="525" y="215.2245">&#171;extend&#187;</text></g><!--link logs to ativos--><g id="link_logs_ativos"><path d="M477.06,557.2994 C518.92,555.8594 566.0735,554.244 609.7435,552.754 " fill="none" id="logs-to-ativos" style="stroke:#181818;stroke-width:1;stroke-dasharray:7.0,7.0;"/><polygon fill="#181818" points="615.74,552.5494,606.6088,548.8586,610.7429,552.7199,606.8816,556.8539,615.74,552.5494" style="stroke:#181818;stroke-width:1;"/><text fill="#000000" font-family="sans-serif" font-size="13" lengthAdjust="spacing" textLength="53.4917" x="525" y="551.2245">&#171;extend&#187;</text></g><!--link admin to user--><g id="link_admin_user"><path d="M57.25,349.3494 C66.67,305.9694 86.31,235.6194 122,184.7294 C130.41,172.7494 127.737,173.2807 139.047,163.8307 " fill="none" id="admin-to-user" style="stroke:#181818;stroke-width:1;"/><polygon fill="none" points="152.86,152.2894,135.1999,159.2264,142.8942,168.435,152.86,152.2894" style="stroke:#181818;stroke-width:1;"/></g><!--SRC=[TPJDQXmn3CVlVWgnbvus3r32m7QRaa0E9I6vgxQw5NZiO7c6aYRlNeszy-6mcPCj_IJzBOd9d3t18qkc7i4HVEDVdcCcYx278qgKoVeaqHXFlpFa28bFVp8uJcGpns0CsXmJx9vamCGHZh4V-XsWm22KPk_1zHoqJa8NK_7YP35cIeFXj97npu1-6cnH27O_y9KItCSJXnBdfrEBt6iaAiDZYbAXOccfc_ubqGeMZcPRYpwpFiRpgxAF6VDGaqevVg8k3dcMfyS2jUJ1iTL-DULnjhNepnGjYIZwdSRe1uiLTzDjfC_5gWwPLSZ5rtEl8pra7i-DmdAy8FTPKpfDUKpaA5X6hW5ZjRVmCOQSebVyC0clQcqrKei-qAciGO9LKS7Jx33lndo11_9OUjDJoAgvMIyphHRizzrv6zPhdVjoN-UxcCvJt6QO1dQXPBEpfkphfkRcNekkXdMigssPNPD7jb5r58t_hEmkM3yu4bDAmzLLDyy1liBrDLTtrstyS_S_04j32hJq_0Eb9M_-PWfEA_92ryuLb8gt5fJYhEfRfwQvfOJ1ulAgjwx-5lu3]--></g></svg>