<svg xmlns="http://www.w3.org/2000/svg" xmlns:xlink="http://www.w3.org/1999/xlink" contentStyleType="text/css" height="630px" preserveAspectRatio="none" style="width:2784px;height:630px;background:#FAFAFA;" version="1.1" viewBox="0 0 2784 630" width="2784px" zoomAndPan="magnify"><title>Sistema de Biblioteca - Diagrama de Casos de Uso</title><defs/><g><rect fill="#FAFAFA" height="630" style="stroke:none;stroke-width:1;" width="2784" x="0" y="0"/><text fill="#000000" font-family="sans-serif" font-size="14" font-weight="bold" lengthAdjust="spacing" textLength="337.668" x="1216.191" y="24.5332">Sistema de Biblioteca - Diagrama de Casos de Uso</text><!--cluster Sistema de Biblioteca--><g id="cluster_Sistema de Biblioteca"><rect fill="#FFF3E0" height="241" rx="2.5" ry="2.5" style="stroke:#F57C00;stroke-width:1;" width="1913" x="80.39" y="383.8494"/><text fill="#000000" font-family="sans-serif" font-size="14" font-weight="bold" lengthAdjust="spacing" textLength="144.7168" x="964.5316" y="400.3826">Sistema de Biblioteca</text></g><g id="elem_UC01"><ellipse cx="529.2144" cy="447.4143" fill="#E8F5E8" rx="70.8244" ry="16.5649" style="stroke:#2E7D32;stroke-width:0.5;"/><text fill="#000000" font-family="sans-serif" font-size="12" lengthAdjust="spacing" textLength="100.7168" x="478.856" y="450.3244">UC01: Fazer Login</text></g><g id="elem_UC02"><ellipse cx="351.2631" cy="447.524" fill="#E8F5E8" rx="71.3731" ry="16.6746" style="stroke:#2E7D32;stroke-width:0.5;"/><text fill="#000000" font-family="sans-serif" font-size="12" lengthAdjust="spacing" textLength="102.0352" x="300.2456" y="450.4342">UC02: Listar Livros</text></g><g id="elem_UC03"><ellipse cx="715.3023" cy="447.2318" fill="#E8F5E8" rx="79.9123" ry="18.3825" style="stroke:#2E7D32;stroke-width:0.5;"/><text fill="#000000" font-family="sans-serif" font-size="12" lengthAdjust="spacing" textLength="122.0391" x="654.2828" y="450.142">UC03: Emprestar Livro</text></g><g id="elem_UC04"><ellipse cx="199.1731" cy="585.806" fill="#E8F5E8" rx="102.7831" ry="22.9566" style="stroke:#2E7D32;stroke-width:0.5;"/><text fill="#000000" font-family="sans-serif" font-size="12" lengthAdjust="spacing" textLength="172.7461" x="112.8" y="588.7161">UC04: Visualizar Status do Livro</text></g><g id="elem_UC05"><ellipse cx="170.2942" cy="447.5302" fill="#E8F5E8" rx="73.9042" ry="17.1808" style="stroke:#2E7D32;stroke-width:0.5;"/><text fill="#000000" font-family="sans-serif" font-size="12" lengthAdjust="spacing" textLength="108.0586" x="116.2649" y="450.4404">UC05: Fazer Logout</text></g><g id="elem_UC06"><ellipse cx="1899.4957" cy="447.2705" fill="#E8F5E8" rx="77.6057" ry="17.9211" style="stroke:#2E7D32;stroke-width:0.5;"/><text fill="#000000" font-family="sans-serif" font-size="12" lengthAdjust="spacing" textLength="116.7188" x="1841.1363" y="450.1807">UC06: Adicionar Livro</text></g><g id="elem_UC07"><ellipse cx="921.269" cy="447.4252" fill="#E8F5E8" rx="90.879" ry="20.5758" style="stroke:#2E7D32;stroke-width:0.5;"/><text fill="#000000" font-family="sans-serif" font-size="12" lengthAdjust="spacing" textLength="146.7305" x="847.9038" y="450.3353">UC07: Gerenciar Cat&#195;&#161;logo</text></g><g id="elem_UC08"><ellipse cx="1148.5182" cy="447.375" fill="#E8F5E8" rx="100.6282" ry="22.5256" style="stroke:#2E7D32;stroke-width:0.5;"/><text fill="#000000" font-family="sans-serif" font-size="12" lengthAdjust="spacing" textLength="168.082" x="1064.4772" y="450.2852">UC08: Processar Devolu&#195;&#167;&#195;&#163;o</text></g><g id="elem_UC09"><ellipse cx="1408.3615" cy="447.1437" fill="#E8F5E8" rx="124.4715" ry="27.2943" style="stroke:#2E7D32;stroke-width:0.5;"/><text fill="#000000" font-family="sans-serif" font-size="12" lengthAdjust="spacing" textLength="218.9238" x="1298.8996" y="450.0538">UC09: Visualizar Logs de Empr&#195;&#169;stimos</text></g><g id="elem_UC10"><ellipse cx="1677.4416" cy="447.5597" fill="#E8F5E8" rx="109.0516" ry="24.2103" style="stroke:#2E7D32;stroke-width:0.5;"/><text fill="#000000" font-family="sans-serif" font-size="12" lengthAdjust="spacing" textLength="186.2227" x="1584.3303" y="450.4698">UC10: Listar Empr&#195;&#169;stimos Ativos</text></g><g id="elem_UC11"><ellipse cx="1651.606" cy="585.9926" fill="#E8F5E8" rx="83.716" ry="19.1432" style="stroke:#2E7D32;stroke-width:0.5;"/><text fill="#000000" font-family="sans-serif" font-size="12" lengthAdjust="spacing" textLength="130.7051" x="1586.2534" y="588.9027">UC11: Gerar Relat&#195;&#179;rios</text></g><g id="elem_UC12"><ellipse cx="426.369" cy="585.9452" fill="#E8F5E8" rx="88.479" ry="20.0958" style="stroke:#2E7D32;stroke-width:0.5;"/><text fill="#000000" font-family="sans-serif" font-size="12" lengthAdjust="spacing" textLength="141.3984" x="355.6697" y="588.8553">UC12: Validar Credenciais</text></g><g id="elem_UC13"><ellipse cx="633.5239" cy="585.8761" fill="#E8F5E8" rx="83.1339" ry="19.0268" style="stroke:#2E7D32;stroke-width:0.5;"/><text fill="#000000" font-family="sans-serif" font-size="12" lengthAdjust="spacing" textLength="129.3867" x="568.8305" y="588.7863">UC13: Controlar Acesso</text></g><g id="elem_UC14"><ellipse cx="850.4309" cy="585.9576" fill="#E8F5E8" rx="98.5409" ry="22.1082" style="stroke:#2E7D32;stroke-width:0.5;"/><text fill="#000000" font-family="sans-serif" font-size="12" lengthAdjust="spacing" textLength="163.5469" x="768.6574" y="588.8677">UC14: Registrar Empr&#195;&#169;stimo</text></g><g id="elem_UC15"><ellipse cx="1100.2103" cy="585.8134" fill="#E8F5E8" rx="100.3203" ry="22.4641" style="stroke:#2E7D32;stroke-width:0.5;"/><text fill="#000000" font-family="sans-serif" font-size="12" lengthAdjust="spacing" textLength="167.4141" x="1016.5032" y="588.7236">UC15: Atualizar Status do Livro</text></g><!--entity Usuario--><g id="elem_Usuario"><ellipse cx="467.5658" cy="250.3494" fill="#ADD8E6" rx="8" ry="8" style="stroke:#0277BD;stroke-width:0.5;"/><path d="M467.5658,258.3494 L467.5658,285.3494 M454.5658,266.3494 L480.5658,266.3494 M467.5658,285.3494 L454.5658,300.3494 M467.5658,285.3494 L480.5658,300.3494 " fill="none" style="stroke:#0277BD;stroke-width:0.5;"/><text fill="#000000" font-family="sans-serif" font-size="14" lengthAdjust="spacing" textLength="107.3516" x="413.89" y="316.3826">Usu&#195;&#161;rio Comum</text></g><!--entity Admin--><g id="elem_Admin"><ellipse cx="1060.5726" cy="94.3494" fill="#F08080" rx="8" ry="8" style="stroke:#0277BD;stroke-width:0.5;"/><path d="M1060.5726,102.3494 L1060.5726,129.3494 M1047.5726,110.3494 L1073.5726,110.3494 M1060.5726,129.3494 L1047.5726,144.3494 M1060.5726,129.3494 L1073.5726,144.3494 " fill="none" style="stroke:#0277BD;stroke-width:0.5;"/><text fill="#000000" font-family="sans-serif" font-size="14" lengthAdjust="spacing" textLength="86.3652" x="1017.39" y="160.3826">Administrador</text></g><!--entity Sistema--><g id="elem_Sistema"><ellipse cx="1164.1761" cy="94.3494" fill="#D3D3D3" rx="8" ry="8" style="stroke:#0277BD;stroke-width:0.5;"/><path d="M1164.1761,102.3494 L1164.1761,129.3494 M1151.1761,110.3494 L1177.1761,110.3494 M1164.1761,129.3494 L1151.1761,144.3494 M1164.1761,129.3494 L1177.1761,144.3494 " fill="none" style="stroke:#0277BD;stroke-width:0.5;"/><text fill="#000000" font-family="sans-serif" font-size="14" lengthAdjust="spacing" textLength="50.5723" x="1138.89" y="160.3826">Sistema</text></g><g id="elem_GMN43"><path d="M2011.89,417.8494 L2011.89,476.9041 L2210.618,476.9041 L2210.618,427.8494 L2200.618,417.8494 L2011.89,417.8494 " fill="#FEFFDD" style="stroke:#181818;stroke-width:0.5;"/><path d="M2200.618,417.8494 L2200.618,427.8494 L2210.618,427.8494 L2200.618,417.8494 " fill="#FEFFDD" style="stroke:#181818;stroke-width:1;"/><text fill="#000000" font-family="sans-serif" font-size="13" font-weight="bold" lengthAdjust="spacing" textLength="177.728" x="2017.89" y="436.3445">Autentica&#195;&#167;&#195;&#163;o necess&#195;&#161;ria</text><text fill="#000000" font-family="sans-serif" font-size="13" lengthAdjust="spacing" textLength="170.5488" x="2017.89" y="452.6961">- Valida&#195;&#167;&#195;&#163;o de credenciais</text><text fill="#000000" font-family="sans-serif" font-size="13" lengthAdjust="spacing" textLength="166.9243" x="2017.89" y="469.0476">- Controle de acesso por tipo</text></g><g id="elem_GMN46"><path d="M2245.89,409.8494 L2245.89,485.2556 L2496.8212,485.2556 L2496.8212,419.8494 L2486.8212,409.8494 L2245.89,409.8494 " fill="#FEFFDD" style="stroke:#181818;stroke-width:0.5;"/><path d="M2486.8212,409.8494 L2486.8212,419.8494 L2496.8212,419.8494 L2486.8212,409.8494 " fill="#FEFFDD" style="stroke:#181818;stroke-width:1;"/><text fill="#000000" font-family="sans-serif" font-size="13" font-weight="bold" lengthAdjust="spacing" textLength="123.5317" x="2251.89" y="428.3445">Regras de Neg&#195;&#179;cio</text><text fill="#000000" font-family="sans-serif" font-size="13" lengthAdjust="spacing" textLength="171.9707" x="2251.89" y="444.6961">- Livro deve estar dispon&#195;&#173;vel</text><text fill="#000000" font-family="sans-serif" font-size="13" lengthAdjust="spacing" textLength="153.8926" x="2251.89" y="461.0476">- Usu&#195;&#161;rio deve estar ativo</text><text fill="#000000" font-family="sans-serif" font-size="13" lengthAdjust="spacing" textLength="229.9312" x="2251.89" y="477.3992">- Registro autom&#195;&#161;tico do empr&#195;&#169;stimo</text></g><g id="elem_GMN49"><path d="M2531.89,417.8494 L2531.89,476.9041 L2726.5047,476.9041 L2726.5047,427.8494 L2716.5047,417.8494 L2531.89,417.8494 " fill="#FEFFDD" style="stroke:#181818;stroke-width:0.5;"/><path d="M2716.5047,417.8494 L2716.5047,427.8494 L2726.5047,427.8494 L2716.5047,417.8494 " fill="#FEFFDD" style="stroke:#181818;stroke-width:1;"/><text fill="#000000" font-family="sans-serif" font-size="13" font-weight="bold" lengthAdjust="spacing" textLength="153.8735" x="2537.89" y="436.3445">Apenas Administradores</text><text fill="#000000" font-family="sans-serif" font-size="13" lengthAdjust="spacing" textLength="173.6147" x="2537.89" y="452.6961">- Valida&#195;&#167;&#195;&#163;o de privil&#195;&#169;gios</text><text fill="#000000" font-family="sans-serif" font-size="13" lengthAdjust="spacing" textLength="122.8271" x="2537.89" y="469.0476">- Dados obrigat&#195;&#179;rios</text></g><!--link Usuario to UC01--><g id="link_Usuario_UC01"><path d="M481.77,319.9994 C495,355.1194 511.8638,399.845 521.3738,425.075 " fill="none" id="Usuario-to-UC01" style="stroke:#181818;stroke-width:1;"/><polygon fill="#181818" points="523.49,430.6894,524.0586,420.8569,521.7265,426.0107,516.5727,423.6786,523.49,430.6894" style="stroke:#181818;stroke-width:1;"/><text fill="#000000" font-family="sans-serif" font-size="13" lengthAdjust="spacing" textLength="41.1899" x="499.39" y="364.3445">acessa</text></g><!--link Usuario to UC02--><g id="link_Usuario_UC02"><path d="M440.48,319.9994 C415.72,355.1194 383.6776,400.5558 365.8876,425.7858 " fill="none" id="Usuario-to-UC02" style="stroke:#181818;stroke-width:1;"/><polygon fill="#181818" points="362.43,430.6894,370.8854,425.6391,365.3113,426.6031,364.3473,421.0289,362.43,430.6894" style="stroke:#181818;stroke-width:1;"/><text fill="#000000" font-family="sans-serif" font-size="13" lengthAdjust="spacing" textLength="48.4199" x="416.39" y="364.3445">consulta</text></g><!--link Usuario to UC03--><g id="link_Usuario_UC03"><path d="M521.09,313.9894 C550.21,331.7394 586.63,354.4594 618.39,375.8494 C644.46,393.4094 668.7291,411.1806 688.1791,425.7606 " fill="none" id="Usuario-to-UC03" style="stroke:#181818;stroke-width:1;"/><polygon fill="#181818" points="692.98,429.3594,688.1779,420.7606,688.9793,426.3604,683.3795,427.1617,692.98,429.3594" style="stroke:#181818;stroke-width:1;"/><text fill="#000000" font-family="sans-serif" font-size="13" lengthAdjust="spacing" textLength="39.7363" x="602.39" y="364.3445">solicita</text></g><!--link Usuario to UC04--><g id="link_Usuario_UC04"><path d="M413.87,289.7194 C303.75,306.4394 60.11,346.3994 36.39,375.8494 C6,413.5794 12.73,442.5794 36.39,484.8494 C58.93,525.1194 99.4893,548.8613 136.9393,564.2313 " fill="none" id="Usuario-to-UC04" style="stroke:#181818;stroke-width:1;"/><polygon fill="#181818" points="142.49,566.5094,135.6827,559.3918,137.8644,564.611,132.6452,566.7927,142.49,566.5094" style="stroke:#181818;stroke-width:1;"/><text fill="#000000" font-family="sans-serif" font-size="13" lengthAdjust="spacing" textLength="41.1772" x="37.39" y="452.8445">verifica</text></g><!--link Usuario to UC05--><g id="link_Usuario_UC05"><path d="M413.49,302.6694 C371.15,319.9394 311.36,346.3694 262.39,375.8494 C234.98,392.3494 210.7055,411.668 192.7755,426.878 " fill="none" id="Usuario-to-UC05" style="stroke:#181818;stroke-width:1;"/><polygon fill="#181818" points="188.2,430.7594,197.6508,427.9876,192.0129,427.5249,192.4756,421.887,188.2,430.7594" style="stroke:#181818;stroke-width:1;"/><text fill="#000000" font-family="sans-serif" font-size="13" lengthAdjust="spacing" textLength="45.5317" x="306.39" y="364.3445">executa</text></g><!--link Admin to UC01--><g id="link_Admin_UC01"><path d="M1019.52,163.9694 C956.93,219.7494 831.12,321.9794 703.39,367.8494 C667.68,380.6694 653.6,361.7094 618.39,375.8494 C587.84,388.1194 563.4334,410.0589 547.2634,426.8389 " fill="none" id="Admin-to-UC01" style="stroke:#181818;stroke-width:1;"/><polygon fill="#181818" points="543.1,431.1594,552.2254,427.4543,546.5695,427.559,546.4648,421.9031,543.1,431.1594" style="stroke:#181818;stroke-width:1;"/><text fill="#000000" font-family="sans-serif" font-size="13" lengthAdjust="spacing" textLength="41.1899" x="922.39" y="286.3445">acessa</text></g><!--link Admin to UC02--><g id="link_Admin_UC02"><path d="M1017.2,134.3894 C954.07,148.4694 835.02,181.2394 751.39,241.8494 C693.27,283.9694 714.48,335.5594 650.39,367.8494 C608.88,388.7594 485.03,359.8494 441.39,375.8494 C410.27,387.2594 385.591,409.4375 369.311,426.5075 " fill="none" id="Admin-to-UC02" style="stroke:#181818;stroke-width:1;"/><polygon fill="#181818" points="365.17,430.8494,374.2761,427.0971,368.6208,427.2311,368.4869,421.5758,365.17,430.8494" style="stroke:#181818;stroke-width:1;"/><text fill="#000000" font-family="sans-serif" font-size="13" lengthAdjust="spacing" textLength="48.4199" x="752.39" y="286.3445">consulta</text></g><!--link Admin to UC06--><g id="link_Admin_UC06"><path d="M1103.69,155.4594 C1109.48,158.6194 1115.46,161.5294 1121.39,163.8494 C1206.93,197.3694 1440.19,212.9294 1527.39,241.8494 C1657.2,284.8894 1687.41,305.0094 1804.39,375.8494 C1831.62,392.3394 1856.0285,410.9442 1874.7385,426.0242 " fill="none" id="Admin-to-UC06" style="stroke:#181818;stroke-width:1;"/><polygon fill="#181818" points="1879.41,429.7894,1874.9128,421.0272,1875.517,426.6517,1869.8926,427.2559,1879.41,429.7894" style="stroke:#181818;stroke-width:1;"/><text fill="#000000" font-family="sans-serif" font-size="13" lengthAdjust="spacing" textLength="45.5317" x="1710.39" y="286.3445">executa</text></g><!--link Admin to UC07--><g id="link_Admin_UC07"><path d="M1043.9,163.8694 C1014.13,232.5194 954.7874,369.3348 932.2474,421.3048 " fill="none" id="Admin-to-UC07" style="stroke:#181818;stroke-width:1;"/><polygon fill="#181818" points="929.86,426.8094,937.1108,420.1441,931.8495,422.2222,929.7714,416.9609,929.86,426.8094" style="stroke:#181818;stroke-width:1;"/><text fill="#000000" font-family="sans-serif" font-size="13" lengthAdjust="spacing" textLength="49.8672" x="1009.39" y="286.3445">gerencia</text></g><!--link Admin to UC08--><g id="link_Admin_UC08"><path d="M1070.83,163.8694 C1089.45,231.6894 1126.2205,365.6337 1140.9105,419.1037 " fill="none" id="Admin-to-UC08" style="stroke:#181818;stroke-width:1;"/><polygon fill="#181818" points="1142.5,424.8894,1143.9728,415.1513,1141.1754,420.068,1136.2587,417.2706,1142.5,424.8894" style="stroke:#181818;stroke-width:1;"/><text fill="#000000" font-family="sans-serif" font-size="13" lengthAdjust="spacing" textLength="52.749" x="1113.39" y="286.3445">processa</text></g><!--link Admin to UC09--><g id="link_Admin_UC09"><path d="M1101.68,163.8694 C1173.33,229.8694 1314.5067,359.8846 1375.7867,416.3246 " fill="none" id="Admin-to-UC09" style="stroke:#181818;stroke-width:1;"/><polygon fill="#181818" points="1380.2,420.3894,1376.2898,411.35,1376.5222,417.0021,1370.8701,417.2344,1380.2,420.3894" style="stroke:#181818;stroke-width:1;"/><text fill="#000000" font-family="sans-serif" font-size="13" lengthAdjust="spacing" textLength="49.8545" x="1269.39" y="286.3445">visualiza</text></g><!--link Admin to UC10--><g id="link_Admin_UC10"><path d="M1103.45,154.1094 C1109.37,157.5694 1115.46,160.9194 1121.39,163.8494 C1209.13,207.2694 1239.04,199.6794 1327.39,241.8494 C1448.38,299.5994 1578.0816,381.3759 1639.1116,421.1059 " fill="none" id="Admin-to-UC10" style="stroke:#181818;stroke-width:1;"/><polygon fill="#181818" points="1644.14,424.3794,1638.7797,416.117,1639.9497,421.6515,1634.4151,422.8215,1644.14,424.3794" style="stroke:#181818;stroke-width:1;"/><text fill="#000000" font-family="sans-serif" font-size="13" lengthAdjust="spacing" textLength="48.4199" x="1470.39" y="286.3445">consulta</text></g><!--link Admin to UC11--><g id="link_Admin_UC11"><path d="M1103.54,155.8594 C1109.36,158.9494 1115.39,161.7294 1121.39,163.8494 C1155.33,175.8094 1728.7,237.2494 1764.39,241.8494 C2200.38,298.0994 2455.36,44.6094 2744.39,375.8494 C2776.24,412.3494 2777.05,449.0694 2744.39,484.8494 C2676.63,559.0894 1984.0489,578.7643 1740.5489,583.4343 " fill="none" id="Admin-to-UC11" style="stroke:#181818;stroke-width:1;"/><polygon fill="#181818" points="1734.55,583.5494,1743.625,587.3761,1739.5491,583.4535,1743.4716,579.3775,1734.55,583.5494" style="stroke:#181818;stroke-width:1;"/><text fill="#000000" font-family="sans-serif" font-size="13" lengthAdjust="spacing" textLength="26.019" x="2731.39" y="364.3445">gera</text></g><!--link Admin to UC05--><g id="link_Admin_UC05"><path d="M1017.14,128.7994 C881.11,138.7094 464.22,174.0494 349.39,241.8494 C266.7,290.6594 205.391,385.9112 182.481,425.0512 " fill="none" id="Admin-to-UC05" style="stroke:#181818;stroke-width:1;"/><polygon fill="#181818" points="179.45,430.2294,187.4485,424.4828,181.9758,425.9142,180.5443,420.4415,179.45,430.2294" style="stroke:#181818;stroke-width:1;"/><text fill="#000000" font-family="sans-serif" font-size="13" lengthAdjust="spacing" textLength="45.5317" x="350.39" y="286.3445">executa</text></g><!--link UC01 to UC12--><g id="link_UC01_UC12"><path d="M515.77,463.5494 C504.12,476.7794 487.1,496.6494 473.39,514.8494 C460.79,531.5694 450.8438,546.4018 441.6538,560.7018 " fill="none" id="UC01-to-UC12" style="stroke:#181818;stroke-width:1;stroke-dasharray:7.0,7.0;"/><polygon fill="#181818" points="438.41,565.7494,446.6408,560.3406,441.1132,561.5431,439.9107,556.0155,438.41,565.7494" style="stroke:#181818;stroke-width:1;"/><text fill="#000000" font-family="sans-serif" font-size="13" lengthAdjust="spacing" textLength="55.6563" x="474.39" y="529.3445">&#171;include&#187;</text></g><!--link UC01 to UC13--><g id="link_UC01_UC13"><path d="M541.12,463.7394 C560.45,489.1194 595.2932,534.8572 615.9232,561.9272 " fill="none" id="UC01-to-UC13" style="stroke:#181818;stroke-width:1;stroke-dasharray:7.0,7.0;"/><polygon fill="#181818" points="619.56,566.6994,617.2862,557.1166,616.5293,562.7226,610.9233,561.9657,619.56,566.6994" style="stroke:#181818;stroke-width:1;"/><text fill="#000000" font-family="sans-serif" font-size="13" lengthAdjust="spacing" textLength="55.6563" x="594.39" y="529.3445">&#171;include&#187;</text></g><!--link UC03 to UC14--><g id="link_UC03_UC14"><path d="M732.49,465.6394 C757.32,490.7494 799.0812,532.963 825.6912,559.873 " fill="none" id="UC03-to-UC14" style="stroke:#181818;stroke-width:1;stroke-dasharray:7.0,7.0;"/><polygon fill="#181818" points="829.91,564.1394,826.426,554.9273,826.3943,560.5841,820.7376,560.5524,829.91,564.1394" style="stroke:#181818;stroke-width:1;"/><text fill="#000000" font-family="sans-serif" font-size="13" lengthAdjust="spacing" textLength="55.6563" x="799.39" y="529.3445">&#171;include&#187;</text></g><!--link UC03 to UC15--><g id="link_UC03_UC15"><path d="M755.37,463.4594 C773.11,470.1094 794.26,477.9594 813.39,484.8494 C894.67,514.1394 983.7241,544.934 1041.4341,564.714 " fill="none" id="UC03-to-UC15" style="stroke:#181818;stroke-width:1;stroke-dasharray:7.0,7.0;"/><polygon fill="#181818" points="1047.11,566.6594,1039.8931,559.9574,1042.3801,565.0382,1037.2993,567.5252,1047.11,566.6594" style="stroke:#181818;stroke-width:1;"/><text fill="#000000" font-family="sans-serif" font-size="13" lengthAdjust="spacing" textLength="55.6563" x="947.39" y="529.3445">&#171;include&#187;</text></g><!--link UC08 to UC15--><g id="link_UC08_UC15"><path d="M1140.78,469.9794 C1131.79,495.5394 1118.9203,532.1491 1109.9503,557.6591 " fill="none" id="UC08-to-UC15" style="stroke:#181818;stroke-width:1;stroke-dasharray:7.0,7.0;"/><polygon fill="#181818" points="1107.96,563.3194,1114.719,556.1558,1109.6186,558.6025,1107.1719,553.5021,1107.96,563.3194" style="stroke:#181818;stroke-width:1;"/><text fill="#000000" font-family="sans-serif" font-size="13" lengthAdjust="spacing" textLength="55.6563" x="1125.39" y="529.3445">&#171;include&#187;</text></g><!--link UC02 to UC04--><g id="link_UC02_UC04"><path d="M334.54,463.4794 C307.49,487.7694 258.7243,531.5606 227.7543,559.3706 " fill="none" id="UC02-to-UC04" style="stroke:#181818;stroke-width:1;stroke-dasharray:7.0,7.0;"/><polygon fill="#181818" points="223.29,563.3794,232.6589,560.3424,227.0102,560.0387,227.3139,554.39,223.29,563.3794" style="stroke:#181818;stroke-width:1;"/><text fill="#000000" font-family="sans-serif" font-size="13" lengthAdjust="spacing" textLength="53.4917" x="276.39" y="529.3445">&#171;extend&#187;</text></g><!--link UC09 to UC11--><g id="link_UC09_UC11"><path d="M1452.68,473.2294 C1501.68,500.7594 1574.0789,541.4207 1616.3389,565.1607 " fill="none" id="UC09-to-UC11" style="stroke:#181818;stroke-width:1;stroke-dasharray:7.0,7.0;"/><polygon fill="#181818" points="1621.57,568.0994,1615.6824,560.204,1617.2107,565.6505,1611.7643,567.1788,1621.57,568.0994" style="stroke:#181818;stroke-width:1;"/><text fill="#000000" font-family="sans-serif" font-size="13" lengthAdjust="spacing" textLength="53.4917" x="1559.39" y="529.3445">&#171;extend&#187;</text></g><!--link Admin to Usuario--><g id="link_Admin_Usuario"><path d="M1017.19,127.1894 C936.31,130.8294 757.47,144.2994 616.39,193.8494 C582.85,205.6294 563.4918,215.385 536.1118,232.785 " fill="none" id="Admin-to-Usuario" style="stroke:#181818;stroke-width:1;"/><polygon fill="none" points="520.92,242.4394,539.33,237.8489,532.8937,227.721,520.92,242.4394" style="stroke:#181818;stroke-width:1;"/><text fill="#000000" font-family="sans-serif" font-size="13" lengthAdjust="spacing" textLength="33.249" x="617.39" y="208.3445">herda</text></g><!--link UC01 to GMN43--><g id="link_UC01_GMN43"><path d="M540.77,430.6694 C558.08,406.9594 593.52,364.5594 635.89,347.8494 C705.14,320.5294 1905.15,324.6694 1975.89,347.8494 C2017.77,361.5694 2057.38,393.7294 2082.84,417.7894 " fill="none" id="UC01-GMN43" style="stroke:#181818;stroke-width:1;stroke-dasharray:7.0,7.0;"/></g><!--link UC03 to GMN46--><g id="link_UC03_GMN46"><path d="M729.38,429.0194 C749,405.0094 787.22,364.0694 830.89,347.8494 C902.76,321.1594 2137.15,326.8494 2210.89,347.8494 C2253.45,359.9694 2295.76,386.9794 2326.24,409.7994 " fill="none" id="UC03-GMN46" style="stroke:#181818;stroke-width:1;stroke-dasharray:7.0,7.0;"/></g><!--link UC06 to GMN49--><g id="link_UC06_GMN49"><path d="M1912.59,429.4394 C1931.47,405.4994 1968.73,364.1994 2011.89,347.8494 C2112.68,309.6694 2394.65,313.7394 2496.89,347.8494 C2538.09,361.5994 2576.79,393.7494 2601.6,417.7994 " fill="none" id="UC06-GMN49" style="stroke:#181818;stroke-width:1;stroke-dasharray:7.0,7.0;"/></g><!--SRC=[dLRDRXCn4BxlKrZXKAWKj9iqJRggAgL9bWj2g5Mvkxl3rgfZhsnlL0gSU1BWW3XmGhm0l1XZxph9nasHI1MfylVDtpVZSGmp7CWbqmQMb1H0pjarPz90JacVp1aj5Ms06TLIst-kj8mYVSj4HH4ZrpI_BPMiHJ6JN2ho99lQloq6pGsUluy8VivtsOia6sMB1fEg0DMUnuFn-7mUVTpoKslCIiDUJvDij9Y4dWQByNmuSEUP5EQItGD91XtF2d93HSdt-iwoRBY8Gz_PQ3oBO_GLcVyKye1CKHtGKQDIxqhNVpxz_goO93Evh9SzGZKoQsfFdd1MtfXhNeEdJuib4nXKqK8gntKdBJENYd9FRNDp99zdGyFKtjbCBi1Wx2-YhBaaXIIwOKKRUNeF5jXhPJlOr5PhINBCNsY7-DRrhcPnafACteCYBsN9H5CVdWQyGKfUOZIAHBPIKdlc860EKx9OLYZYckovmu1xb98t3ENax1x9buQQMjjQEsP7WTbeAsbP6qySEU93nTDrOmnRoL25unGxnN8cnMxEnm5td98Ne43a3BapQflqcMCUtc8SM4nIybh97BH6Ypci9BTJzGs_NzTMay3gfACDLkggiTAYuNTjs7BJXPDTwoHUzwjhWGDk5MWDapWmJ5nvQ7S1t1Nt4sTzpK_sIhmreRikSNRUO1c5rKj1uQHZQvV112KuGJFS3Kfoj9XQtRnCIJ122OxG1PIkjpkrUfjWVXASdwbvVEgIaTqZ1qu5DnTB40QhxPFTdH3vVT3ldxcxGr9SihRPkyW0aLmANNCJO4F4jEGuWo5sXDWA57lByW0R8GPtaDTezc2wdPqKDViepBHpticpWnnlHUi0OmJAzbPqaGaYLJlzNUJ4bkKdl0CbyRuCagG9jEFg7ofWR_sgVCf4pki2D06qC20A_InoMZn_xWBOuazFMzRPMGSRXjZGOqUFOACGc-p37ag_JLMxZH6v3ZNMSHErAQHnVE8T9rq8_Ru0WSfPjTlrymjVEg_ZXxFrmvQI6r25K_ALD7WTuAx2oRIxa-f8u2j3b7sfY7ph7ul3mscDWGoorgkD2B1TRouBFJn4MhzT11iErfPlTeAZj7SVBER6Kv8Adqp3AXbXBSGc48Lf35qQk0iKTPAzWj9kBnIo3UskDo8hbDDjneBfIWea_LW1TvIjkxt5Su-6mzjDWmzARUJIKh5Yj_jWU_CybkPnerO5mlyyy9SJz7wDAiLMZDi09PEDJ7EqqKHUe_FDdjv4_Wi0]--></g></svg>