<svg xmlns="http://www.w3.org/2000/svg" xmlns:xlink="http://www.w3.org/1999/xlink" contentStyleType="text/css" height="1238px" preserveAspectRatio="none" style="width:903px;height:1238px;background:#FFFFFF;" version="1.1" viewBox="0 0 903 1238" width="903px" zoomAndPan="magnify"><title>Sistema de Biblioteca - Diagrama de Classes</title><defs/><g><text fill="#000000" font-family="sans-serif" font-size="14" font-weight="bold" lengthAdjust="spacing" textLength="298.0127" x="295.6382" y="24.5332">Sistema de Biblioteca - Diagrama de Classes</text><!--class Usuario--><g id="elem_Usuario"><rect codeLine="4" fill="#F1F1F1" height="171.2656" id="Usuario" rx="2.5" ry="2.5" style="stroke:#181818;stroke-width:0.5;" width="208.0957" x="379.5" y="615.6094"/><ellipse cx="455.1772" cy="631.6094" fill="#ADD1B2" rx="11" ry="11" style="stroke:#181818;stroke-width:1;"/><path d="M457.9429,627.4844 Q458.0991,627.2656 458.2866,627.1563 Q458.4741,627.0469 458.6929,627.0469 Q459.0679,627.0469 459.3022,627.3125 Q459.5366,627.5625 459.5366,628.1719 L459.5366,629.625 Q459.5366,630.2344 459.3022,630.5 Q459.0679,630.7656 458.6929,630.7656 Q458.3491,630.7656 458.146,630.5625 Q457.9429,630.375 457.8335,629.8594 Q457.7866,629.5 457.5991,629.3125 Q457.271,628.9375 456.6616,628.7188 Q456.0522,628.5 455.4272,628.5 Q454.6616,628.5 454.021,628.8281 Q453.396,629.1563 452.896,629.9063 Q452.4116,630.6563 452.4116,631.6875 L452.4116,632.7813 Q452.4116,634.0156 453.3022,634.8438 Q454.1929,635.6563 455.7866,635.6563 Q456.7241,635.6563 457.3804,635.4063 Q457.771,635.25 458.1929,634.8125 Q458.4585,634.5469 458.5991,634.4688 Q458.7554,634.3906 458.9585,634.3906 Q459.2866,634.3906 459.5366,634.6563 Q459.8022,634.9063 459.8022,635.25 Q459.8022,635.5938 459.4585,636 Q458.9585,636.5781 458.1616,636.9063 Q457.0835,637.3594 455.7866,637.3594 Q454.271,637.3594 453.0679,636.7344 Q452.0835,636.2344 451.396,635.1719 Q450.7085,634.0938 450.7085,632.8125 L450.7085,631.6563 Q450.7085,630.3281 451.3179,629.1875 Q451.9429,628.0313 453.0366,627.4219 Q454.1304,626.7969 455.3647,626.7969 Q456.0991,626.7969 456.7397,626.9688 Q457.396,627.125 457.9429,627.4844 Z " fill="#000000"/><text fill="#000000" font-family="sans-serif" font-size="14" lengthAdjust="spacing" textLength="48.2412" x="475.6772" y="637.3379">Usuario</text><line style="stroke:#181818;stroke-width:0.5;" x1="380.5" x2="586.5957" y1="647.6094" y2="647.6094"/><rect fill="none" height="6" style="stroke:#C82930;stroke-width:1;" width="6" x="387.5" y="658.9141"/><text fill="#000000" font-family="sans-serif" font-size="14" lengthAdjust="spacing" textLength="33.4619" x="399.5" y="666.1426">id: int</text><rect fill="none" height="6" style="stroke:#C82930;stroke-width:1;" width="6" x="387.5" y="676.5234"/><text fill="#000000" font-family="sans-serif" font-size="14" lengthAdjust="spacing" textLength="77.0342" x="399.5" y="683.752">nome: string</text><rect fill="none" height="6" style="stroke:#C82930;stroke-width:1;" width="6" x="387.5" y="694.1328"/><text fill="#000000" font-family="sans-serif" font-size="14" lengthAdjust="spacing" textLength="80.1582" x="399.5" y="701.3613">senha: string</text><rect fill="none" height="6" style="stroke:#C82930;stroke-width:1;" width="6" x="387.5" y="711.7422"/><text fill="#000000" font-family="sans-serif" font-size="14" lengthAdjust="spacing" textLength="87.1787" x="399.5" y="718.9707">ativo: boolean</text><rect fill="none" height="6" style="stroke:#C82930;stroke-width:1;" width="6" x="387.5" y="729.3516"/><text fill="#000000" font-family="sans-serif" font-size="14" lengthAdjust="spacing" textLength="64.5859" x="399.5" y="736.5801">tipo: string</text><line style="stroke:#181818;stroke-width:0.5;" x1="380.5" x2="586.5957" y1="743.6563" y2="743.6563"/><ellipse cx="390.5" cy="757.9609" fill="#84BE84" rx="3" ry="3" style="stroke:#038048;stroke-width:1;"/><text fill="#000000" font-family="sans-serif" font-size="14" lengthAdjust="spacing" textLength="182.0957" x="399.5" y="762.1895">validarCredenciais(): boolean</text><ellipse cx="390.5" cy="775.5703" fill="#84BE84" rx="3" ry="3" style="stroke:#038048;stroke-width:1;"/><text fill="#000000" font-family="sans-serif" font-size="14" lengthAdjust="spacing" textLength="116.7236" x="399.5" y="779.7988">isAdmin(): boolean</text></g><!--class Livro--><g id="elem_Livro"><rect codeLine="14" fill="#F1F1F1" height="153.6563" id="Livro" rx="2.5" ry="2.5" style="stroke:#181818;stroke-width:0.5;" width="167.627" x="591.5" y="1077.6094"/><ellipse cx="655.8911" cy="1093.6094" fill="#ADD1B2" rx="11" ry="11" style="stroke:#181818;stroke-width:1;"/><path d="M658.6567,1089.4844 Q658.813,1089.2656 659.0005,1089.1563 Q659.188,1089.0469 659.4067,1089.0469 Q659.7817,1089.0469 660.0161,1089.3125 Q660.2505,1089.5625 660.2505,1090.1719 L660.2505,1091.625 Q660.2505,1092.2344 660.0161,1092.5 Q659.7817,1092.7656 659.4067,1092.7656 Q659.063,1092.7656 658.8599,1092.5625 Q658.6567,1092.375 658.5474,1091.8594 Q658.5005,1091.5 658.313,1091.3125 Q657.9849,1090.9375 657.3755,1090.7188 Q656.7661,1090.5 656.1411,1090.5 Q655.3755,1090.5 654.7349,1090.8281 Q654.1099,1091.1563 653.6099,1091.9063 Q653.1255,1092.6563 653.1255,1093.6875 L653.1255,1094.7813 Q653.1255,1096.0156 654.0161,1096.8438 Q654.9067,1097.6563 656.5005,1097.6563 Q657.438,1097.6563 658.0942,1097.4063 Q658.4849,1097.25 658.9067,1096.8125 Q659.1724,1096.5469 659.313,1096.4688 Q659.4692,1096.3906 659.6724,1096.3906 Q660.0005,1096.3906 660.2505,1096.6563 Q660.5161,1096.9063 660.5161,1097.25 Q660.5161,1097.5938 660.1724,1098 Q659.6724,1098.5781 658.8755,1098.9063 Q657.7974,1099.3594 656.5005,1099.3594 Q654.9849,1099.3594 653.7817,1098.7344 Q652.7974,1098.2344 652.1099,1097.1719 Q651.4224,1096.0938 651.4224,1094.8125 L651.4224,1093.6563 Q651.4224,1092.3281 652.0317,1091.1875 Q652.6567,1090.0313 653.7505,1089.4219 Q654.8442,1088.7969 656.0786,1088.7969 Q656.813,1088.7969 657.4536,1088.9688 Q658.1099,1089.125 658.6567,1089.4844 Z " fill="#000000"/><text fill="#000000" font-family="sans-serif" font-size="14" lengthAdjust="spacing" textLength="30.3447" x="676.3911" y="1099.3379">Livro</text><line style="stroke:#181818;stroke-width:0.5;" x1="592.5" x2="758.127" y1="1109.6094" y2="1109.6094"/><rect fill="none" height="6" style="stroke:#C82930;stroke-width:1;" width="6" x="599.5" y="1120.9141"/><text fill="#000000" font-family="sans-serif" font-size="14" lengthAdjust="spacing" textLength="33.4619" x="611.5" y="1128.1426">id: int</text><rect fill="none" height="6" style="stroke:#C82930;stroke-width:1;" width="6" x="599.5" y="1138.5234"/><text fill="#000000" font-family="sans-serif" font-size="14" lengthAdjust="spacing" textLength="71.5859" x="611.5" y="1145.752">titulo: string</text><rect fill="none" height="6" style="stroke:#C82930;stroke-width:1;" width="6" x="599.5" y="1156.1328"/><text fill="#000000" font-family="sans-serif" font-size="14" lengthAdjust="spacing" textLength="119.8682" x="611.5" y="1163.3613">disponivel: boolean</text><line style="stroke:#181818;stroke-width:0.5;" x1="592.5" x2="758.127" y1="1170.4375" y2="1170.4375"/><ellipse cx="602.5" cy="1184.7422" fill="#84BE84" rx="3" ry="3" style="stroke:#038048;stroke-width:1;"/><text fill="#000000" font-family="sans-serif" font-size="14" lengthAdjust="spacing" textLength="129.9512" x="611.5" y="1188.9707">emprestar(): boolean</text><ellipse cx="602.5" cy="1202.3516" fill="#84BE84" rx="3" ry="3" style="stroke:#038048;stroke-width:1;"/><text fill="#000000" font-family="sans-serif" font-size="14" lengthAdjust="spacing" textLength="119.8477" x="611.5" y="1206.5801">devolver(): boolean</text><ellipse cx="602.5" cy="1219.9609" fill="#84BE84" rx="3" ry="3" style="stroke:#038048;stroke-width:1;"/><text fill="#000000" font-family="sans-serif" font-size="14" lengthAdjust="spacing" textLength="141.627" x="611.5" y="1224.1895">isDisponivel(): boolean</text></g><!--class Emprestimo--><g id="elem_Emprestimo"><rect codeLine="23" fill="#F1F1F1" height="171.2656" id="Emprestimo" rx="2.5" ry="2.5" style="stroke:#181818;stroke-width:0.5;" width="195.6406" x="502.5" y="846.6094"/><ellipse cx="558.729" cy="862.6094" fill="#ADD1B2" rx="11" ry="11" style="stroke:#181818;stroke-width:1;"/><path d="M561.4946,858.4844 Q561.6509,858.2656 561.8384,858.1563 Q562.0259,858.0469 562.2446,858.0469 Q562.6196,858.0469 562.854,858.3125 Q563.0884,858.5625 563.0884,859.1719 L563.0884,860.625 Q563.0884,861.2344 562.854,861.5 Q562.6196,861.7656 562.2446,861.7656 Q561.9009,861.7656 561.6978,861.5625 Q561.4946,861.375 561.3853,860.8594 Q561.3384,860.5 561.1509,860.3125 Q560.8228,859.9375 560.2134,859.7188 Q559.604,859.5 558.979,859.5 Q558.2134,859.5 557.5728,859.8281 Q556.9478,860.1563 556.4478,860.9063 Q555.9634,861.6563 555.9634,862.6875 L555.9634,863.7813 Q555.9634,865.0156 556.854,865.8438 Q557.7446,866.6563 559.3384,866.6563 Q560.2759,866.6563 560.9321,866.4063 Q561.3228,866.25 561.7446,865.8125 Q562.0103,865.5469 562.1509,865.4688 Q562.3071,865.3906 562.5103,865.3906 Q562.8384,865.3906 563.0884,865.6563 Q563.354,865.9063 563.354,866.25 Q563.354,866.5938 563.0103,867 Q562.5103,867.5781 561.7134,867.9063 Q560.6353,868.3594 559.3384,868.3594 Q557.8228,868.3594 556.6196,867.7344 Q555.6353,867.2344 554.9478,866.1719 Q554.2603,865.0938 554.2603,863.8125 L554.2603,862.6563 Q554.2603,861.3281 554.8696,860.1875 Q555.4946,859.0313 556.5884,858.4219 Q557.6821,857.7969 558.9165,857.7969 Q559.6509,857.7969 560.2915,857.9688 Q560.9478,858.125 561.4946,858.4844 Z " fill="#000000"/><text fill="#000000" font-family="sans-serif" font-size="14" lengthAdjust="spacing" textLength="74.6826" x="579.229" y="868.3379">Emprestimo</text><line style="stroke:#181818;stroke-width:0.5;" x1="503.5" x2="697.1406" y1="878.6094" y2="878.6094"/><rect fill="none" height="6" style="stroke:#C82930;stroke-width:1;" width="6" x="510.5" y="889.9141"/><text fill="#000000" font-family="sans-serif" font-size="14" lengthAdjust="spacing" textLength="33.4619" x="522.5" y="897.1426">id: int</text><rect fill="none" height="6" style="stroke:#C82930;stroke-width:1;" width="6" x="510.5" y="907.5234"/><text fill="#000000" font-family="sans-serif" font-size="14" lengthAdjust="spacing" textLength="66.917" x="522.5" y="914.752">livro_id: int</text><rect fill="none" height="6" style="stroke:#C82930;stroke-width:1;" width="6" x="510.5" y="925.1328"/><text fill="#000000" font-family="sans-serif" font-size="14" lengthAdjust="spacing" textLength="87.165" x="522.5" y="932.3613">usuario_id: int</text><rect fill="none" height="6" style="stroke:#C82930;stroke-width:1;" width="6" x="510.5" y="942.7422"/><text fill="#000000" font-family="sans-serif" font-size="14" lengthAdjust="spacing" textLength="169.6406" x="522.5" y="949.9707">data_emprestimo: datetime</text><rect fill="none" height="6" style="stroke:#C82930;stroke-width:1;" width="6" x="510.5" y="960.3516"/><text fill="#000000" font-family="sans-serif" font-size="14" lengthAdjust="spacing" textLength="160.3369" x="522.5" y="967.5801">data_devolucao: datetime</text><line style="stroke:#181818;stroke-width:0.5;" x1="503.5" x2="697.1406" y1="974.6563" y2="974.6563"/><ellipse cx="513.5" cy="988.9609" fill="#84BE84" rx="3" ry="3" style="stroke:#038048;stroke-width:1;"/><text fill="#000000" font-family="sans-serif" font-size="14" lengthAdjust="spacing" textLength="95.7031" x="522.5" y="993.1895">devolver(): void</text><ellipse cx="513.5" cy="1006.5703" fill="#84BE84" rx="3" ry="3" style="stroke:#038048;stroke-width:1;"/><text fill="#000000" font-family="sans-serif" font-size="14" lengthAdjust="spacing" textLength="138.5166" x="522.5" y="1010.7988">isDevolvido(): boolean</text></g><!--class BibliotecaController--><g id="elem_BibliotecaController"><rect codeLine="33" fill="#F1F1F1" height="153.6563" id="BibliotecaController" rx="2.5" ry="2.5" style="stroke:#181818;stroke-width:0.5;" width="226.7305" x="527" y="401.6094"/><ellipse cx="575.4189" cy="417.6094" fill="#ADD1B2" rx="11" ry="11" style="stroke:#181818;stroke-width:1;"/><path d="M578.1846,413.4844 Q578.3408,413.2656 578.5283,413.1563 Q578.7158,413.0469 578.9346,413.0469 Q579.3096,413.0469 579.5439,413.3125 Q579.7783,413.5625 579.7783,414.1719 L579.7783,415.625 Q579.7783,416.2344 579.5439,416.5 Q579.3096,416.7656 578.9346,416.7656 Q578.5908,416.7656 578.3877,416.5625 Q578.1846,416.375 578.0752,415.8594 Q578.0283,415.5 577.8408,415.3125 Q577.5127,414.9375 576.9033,414.7188 Q576.2939,414.5 575.6689,414.5 Q574.9033,414.5 574.2627,414.8281 Q573.6377,415.1563 573.1377,415.9063 Q572.6533,416.6563 572.6533,417.6875 L572.6533,418.7813 Q572.6533,420.0156 573.5439,420.8438 Q574.4346,421.6563 576.0283,421.6563 Q576.9658,421.6563 577.6221,421.4063 Q578.0127,421.25 578.4346,420.8125 Q578.7002,420.5469 578.8408,420.4688 Q578.9971,420.3906 579.2002,420.3906 Q579.5283,420.3906 579.7783,420.6563 Q580.0439,420.9063 580.0439,421.25 Q580.0439,421.5938 579.7002,422 Q579.2002,422.5781 578.4033,422.9063 Q577.3252,423.3594 576.0283,423.3594 Q574.5127,423.3594 573.3096,422.7344 Q572.3252,422.2344 571.6377,421.1719 Q570.9502,420.0938 570.9502,418.8125 L570.9502,417.6563 Q570.9502,416.3281 571.5596,415.1875 Q572.1846,414.0313 573.2783,413.4219 Q574.3721,412.7969 575.6064,412.7969 Q576.3408,412.7969 576.9814,412.9688 Q577.6377,413.125 578.1846,413.4844 Z " fill="#000000"/><text fill="#000000" font-family="sans-serif" font-size="14" lengthAdjust="spacing" textLength="121.3926" x="595.9189" y="423.3379">BibliotecaController</text><line style="stroke:#181818;stroke-width:0.5;" x1="528" x2="752.7305" y1="433.6094" y2="433.6094"/><rect fill="none" height="6" style="stroke:#C82930;stroke-width:1;" width="6" x="535" y="444.9141"/><text fill="#000000" font-family="sans-serif" font-size="14" lengthAdjust="spacing" textLength="108.9307" x="547" y="452.1426">livros: List&lt;Livro&gt;</text><rect fill="none" height="6" style="stroke:#C82930;stroke-width:1;" width="6" x="535" y="462.5234"/><text fill="#000000" font-family="sans-serif" font-size="14" lengthAdjust="spacing" textLength="147.0752" x="547" y="469.752">usuarios: List&lt;Usuario&gt;</text><rect fill="none" height="6" style="stroke:#C82930;stroke-width:1;" width="6" x="535" y="480.1328"/><text fill="#000000" font-family="sans-serif" font-size="14" lengthAdjust="spacing" textLength="200.7305" x="547" y="487.3613">emprestimos: List&lt;Emprestimo&gt;</text><line style="stroke:#181818;stroke-width:0.5;" x1="528" x2="752.7305" y1="494.4375" y2="494.4375"/><ellipse cx="538" cy="508.7422" fill="#84BE84" rx="3" ry="3" style="stroke:#038048;stroke-width:1;"/><text fill="#000000" font-family="sans-serif" font-size="14" lengthAdjust="spacing" textLength="68.4688" x="547" y="512.9707">login(): dict</text><ellipse cx="538" cy="526.3516" fill="#84BE84" rx="3" ry="3" style="stroke:#038048;stroke-width:1;"/><text fill="#000000" font-family="sans-serif" font-size="14" lengthAdjust="spacing" textLength="152.4893" x="547" y="530.5801">listarLivros(): List&lt;Livro&gt;</text><ellipse cx="538" cy="543.9609" fill="#84BE84" rx="3" ry="3" style="stroke:#038048;stroke-width:1;"/><text fill="#000000" font-family="sans-serif" font-size="14" lengthAdjust="spacing" textLength="132.2549" x="547" y="548.1895">emprestarLivro(): dict</text></g><!--class AdminController--><g id="elem_AdminController"><rect codeLine="42" fill="#F1F1F1" height="118.4375" id="AdminController" rx="2.5" ry="2.5" style="stroke:#181818;stroke-width:0.5;" width="305.2891" x="591" y="223.6094"/><ellipse cx="689.2085" cy="239.6094" fill="#ADD1B2" rx="11" ry="11" style="stroke:#181818;stroke-width:1;"/><path d="M691.9741,235.4844 Q692.1304,235.2656 692.3179,235.1563 Q692.5054,235.0469 692.7241,235.0469 Q693.0991,235.0469 693.3335,235.3125 Q693.5679,235.5625 693.5679,236.1719 L693.5679,237.625 Q693.5679,238.2344 693.3335,238.5 Q693.0991,238.7656 692.7241,238.7656 Q692.3804,238.7656 692.1772,238.5625 Q691.9741,238.375 691.8647,237.8594 Q691.8179,237.5 691.6304,237.3125 Q691.3022,236.9375 690.6929,236.7188 Q690.0835,236.5 689.4585,236.5 Q688.6929,236.5 688.0522,236.8281 Q687.4272,237.1563 686.9272,237.9063 Q686.4429,238.6563 686.4429,239.6875 L686.4429,240.7813 Q686.4429,242.0156 687.3335,242.8438 Q688.2241,243.6563 689.8179,243.6563 Q690.7554,243.6563 691.4116,243.4063 Q691.8022,243.25 692.2241,242.8125 Q692.4897,242.5469 692.6304,242.4688 Q692.7866,242.3906 692.9897,242.3906 Q693.3179,242.3906 693.5679,242.6563 Q693.8335,242.9063 693.8335,243.25 Q693.8335,243.5938 693.4897,244 Q692.9897,244.5781 692.1929,244.9063 Q691.1147,245.3594 689.8179,245.3594 Q688.3022,245.3594 687.0991,244.7344 Q686.1147,244.2344 685.4272,243.1719 Q684.7397,242.0938 684.7397,240.8125 L684.7397,239.6563 Q684.7397,238.3281 685.3491,237.1875 Q685.9741,236.0313 687.0679,235.4219 Q688.1616,234.7969 689.396,234.7969 Q690.1304,234.7969 690.771,234.9688 Q691.4272,235.125 691.9741,235.4844 Z " fill="#000000"/><text fill="#000000" font-family="sans-serif" font-size="14" lengthAdjust="spacing" textLength="100.3721" x="709.7085" y="245.3379">AdminController</text><line style="stroke:#181818;stroke-width:0.5;" x1="592" x2="895.2891" y1="255.6094" y2="255.6094"/><line style="stroke:#181818;stroke-width:0.5;" x1="592" x2="895.2891" y1="263.6094" y2="263.6094"/><ellipse cx="602" cy="277.9141" fill="#84BE84" rx="3" ry="3" style="stroke:#038048;stroke-width:1;"/><text fill="#000000" font-family="sans-serif" font-size="14" lengthAdjust="spacing" textLength="126.0479" x="611" y="282.1426">adicionarLivro(): dict</text><ellipse cx="602" cy="295.5234" fill="#84BE84" rx="3" ry="3" style="stroke:#038048;stroke-width:1;"/><text fill="#000000" font-family="sans-serif" font-size="14" lengthAdjust="spacing" textLength="122.1514" x="611" y="299.752">devolverLivro(): dict</text><ellipse cx="602" cy="313.1328" fill="#84BE84" rx="3" ry="3" style="stroke:#038048;stroke-width:1;"/><text fill="#000000" font-family="sans-serif" font-size="14" lengthAdjust="spacing" textLength="241.165" x="611" y="317.3613">listarEmprestimos(): List&lt;Emprestimo&gt;</text><ellipse cx="602" cy="330.7422" fill="#84BE84" rx="3" ry="3" style="stroke:#038048;stroke-width:1;"/><text fill="#000000" font-family="sans-serif" font-size="14" lengthAdjust="spacing" textLength="279.2891" x="611" y="334.9707">listarEmprestimosAtivos(): List&lt;Emprestimo&gt;</text></g><!--class WebInterface--><g id="elem_WebInterface"><rect codeLine="49" fill="#F1F1F1" height="118.4375" id="WebInterface" rx="2.5" ry="2.5" style="stroke:#181818;stroke-width:0.5;" width="178.5098" x="551" y="45.6094"/><ellipse cx="594.4616" cy="61.6094" fill="#ADD1B2" rx="11" ry="11" style="stroke:#181818;stroke-width:1;"/><path d="M597.2272,57.4844 Q597.3835,57.2656 597.571,57.1563 Q597.7585,57.0469 597.9772,57.0469 Q598.3522,57.0469 598.5866,57.3125 Q598.821,57.5625 598.821,58.1719 L598.821,59.625 Q598.821,60.2344 598.5866,60.5 Q598.3522,60.7656 597.9772,60.7656 Q597.6335,60.7656 597.4304,60.5625 Q597.2272,60.375 597.1179,59.8594 Q597.071,59.5 596.8835,59.3125 Q596.5554,58.9375 595.946,58.7188 Q595.3366,58.5 594.7116,58.5 Q593.946,58.5 593.3054,58.8281 Q592.6804,59.1563 592.1804,59.9063 Q591.696,60.6563 591.696,61.6875 L591.696,62.7813 Q591.696,64.0156 592.5866,64.8438 Q593.4772,65.6563 595.071,65.6563 Q596.0085,65.6563 596.6647,65.4063 Q597.0554,65.25 597.4772,64.8125 Q597.7429,64.5469 597.8835,64.4688 Q598.0397,64.3906 598.2429,64.3906 Q598.571,64.3906 598.821,64.6563 Q599.0866,64.9063 599.0866,65.25 Q599.0866,65.5938 598.7429,66 Q598.2429,66.5781 597.446,66.9063 Q596.3679,67.3594 595.071,67.3594 Q593.5554,67.3594 592.3522,66.7344 Q591.3679,66.2344 590.6804,65.1719 Q589.9929,64.0938 589.9929,62.8125 L589.9929,61.6563 Q589.9929,60.3281 590.6022,59.1875 Q591.2272,58.0313 592.321,57.4219 Q593.4147,56.7969 594.6491,56.7969 Q595.3835,56.7969 596.0241,56.9688 Q596.6804,57.125 597.2272,57.4844 Z " fill="#000000"/><text fill="#000000" font-family="sans-serif" font-size="14" lengthAdjust="spacing" textLength="83.2617" x="614.7864" y="67.3379">WebInterface</text><line style="stroke:#181818;stroke-width:0.5;" x1="552" x2="728.5098" y1="77.6094" y2="77.6094"/><line style="stroke:#181818;stroke-width:0.5;" x1="552" x2="728.5098" y1="85.6094" y2="85.6094"/><ellipse cx="562" cy="99.9141" fill="#84BE84" rx="3" ry="3" style="stroke:#038048;stroke-width:1;"/><text fill="#000000" font-family="sans-serif" font-size="14" lengthAdjust="spacing" textLength="132.2754" x="571" y="104.1426">showMessage(): void</text><ellipse cx="562" cy="117.5234" fill="#84BE84" rx="3" ry="3" style="stroke:#038048;stroke-width:1;"/><text fill="#000000" font-family="sans-serif" font-size="14" lengthAdjust="spacing" textLength="106.5996" x="571" y="121.752">loadLivros(): void</text><ellipse cx="562" cy="135.1328" fill="#84BE84" rx="3" ry="3" style="stroke:#038048;stroke-width:1;"/><text fill="#000000" font-family="sans-serif" font-size="14" lengthAdjust="spacing" textLength="142.3857" x="571" y="139.3613">showLoginForm(): void</text><ellipse cx="562" cy="152.7422" fill="#84BE84" rx="3" ry="3" style="stroke:#038048;stroke-width:1;"/><text fill="#000000" font-family="sans-serif" font-size="14" lengthAdjust="spacing" textLength="152.5098" x="571" y="156.9707">showMainSection(): void</text></g><!--class UsuarioComum--><g id="elem_UsuarioComum"><rect codeLine="56" fill="#F1F1F1" height="65.6094" id="UsuarioComum" rx="2.5" ry="2.5" style="stroke:#181818;stroke-width:0.5;" width="188.6475" x="7" y="899.1094"/><ellipse cx="48.7297" cy="915.1094" fill="#ADD1B2" rx="11" ry="11" style="stroke:#181818;stroke-width:1;"/><path d="M51.4954,910.9844 Q51.6516,910.7656 51.8391,910.6563 Q52.0266,910.5469 52.2454,910.5469 Q52.6204,910.5469 52.8547,910.8125 Q53.0891,911.0625 53.0891,911.6719 L53.0891,913.125 Q53.0891,913.7344 52.8547,914 Q52.6204,914.2656 52.2454,914.2656 Q51.9016,914.2656 51.6985,914.0625 Q51.4954,913.875 51.386,913.3594 Q51.3391,913 51.1516,912.8125 Q50.8235,912.4375 50.2141,912.2188 Q49.6047,912 48.9797,912 Q48.2141,912 47.5735,912.3281 Q46.9485,912.6563 46.4485,913.4063 Q45.9641,914.1563 45.9641,915.1875 L45.9641,916.2813 Q45.9641,917.5156 46.8547,918.3438 Q47.7454,919.1563 49.3391,919.1563 Q50.2766,919.1563 50.9329,918.9063 Q51.3235,918.75 51.7454,918.3125 Q52.011,918.0469 52.1516,917.9688 Q52.3079,917.8906 52.511,917.8906 Q52.8391,917.8906 53.0891,918.1563 Q53.3547,918.4063 53.3547,918.75 Q53.3547,919.0938 53.011,919.5 Q52.511,920.0781 51.7141,920.4063 Q50.636,920.8594 49.3391,920.8594 Q47.8235,920.8594 46.6204,920.2344 Q45.636,919.7344 44.9485,918.6719 Q44.261,917.5938 44.261,916.3125 L44.261,915.1563 Q44.261,913.8281 44.8704,912.6875 Q45.4954,911.5313 46.5891,910.9219 Q47.6829,910.2969 48.9172,910.2969 Q49.6516,910.2969 50.2922,910.4688 Q50.9485,910.625 51.4954,910.9844 Z " fill="#000000"/><text fill="#000000" font-family="sans-serif" font-size="14" lengthAdjust="spacing" textLength="97.248" x="68.6697" y="920.8379">UsuarioComum</text><line style="stroke:#181818;stroke-width:0.5;" x1="8" x2="194.6475" y1="931.1094" y2="931.1094"/><line style="stroke:#181818;stroke-width:0.5;" x1="8" x2="194.6475" y1="939.1094" y2="939.1094"/><ellipse cx="18" cy="953.4141" fill="#84BE84" rx="3" ry="3" style="stroke:#038048;stroke-width:1;"/><text fill="#000000" font-family="sans-serif" font-size="14" lengthAdjust="spacing" textLength="162.6475" x="27" y="957.6426">podeEmprestar(): boolean</text></g><!--class Administrador--><g id="elem_Administrador"><rect codeLine="60" fill="#F1F1F1" height="65.6094" id="Administrador" rx="2.5" ry="2.5" style="stroke:#181818;stroke-width:0.5;" width="236.1162" x="231.5" y="899.1094"/><ellipse cx="302.1255" cy="915.1094" fill="#ADD1B2" rx="11" ry="11" style="stroke:#181818;stroke-width:1;"/><path d="M304.8911,910.9844 Q305.0474,910.7656 305.2349,910.6563 Q305.4224,910.5469 305.6411,910.5469 Q306.0161,910.5469 306.2505,910.8125 Q306.4849,911.0625 306.4849,911.6719 L306.4849,913.125 Q306.4849,913.7344 306.2505,914 Q306.0161,914.2656 305.6411,914.2656 Q305.2974,914.2656 305.0942,914.0625 Q304.8911,913.875 304.7817,913.3594 Q304.7349,913 304.5474,912.8125 Q304.2192,912.4375 303.6099,912.2188 Q303.0005,912 302.3755,912 Q301.6099,912 300.9692,912.3281 Q300.3442,912.6563 299.8442,913.4063 Q299.3599,914.1563 299.3599,915.1875 L299.3599,916.2813 Q299.3599,917.5156 300.2505,918.3438 Q301.1411,919.1563 302.7349,919.1563 Q303.6724,919.1563 304.3286,918.9063 Q304.7192,918.75 305.1411,918.3125 Q305.4067,918.0469 305.5474,917.9688 Q305.7036,917.8906 305.9067,917.8906 Q306.2349,917.8906 306.4849,918.1563 Q306.7505,918.4063 306.7505,918.75 Q306.7505,919.0938 306.4067,919.5 Q305.9067,920.0781 305.1099,920.4063 Q304.0317,920.8594 302.7349,920.8594 Q301.2192,920.8594 300.0161,920.2344 Q299.0317,919.7344 298.3442,918.6719 Q297.6567,917.5938 297.6567,916.3125 L297.6567,915.1563 Q297.6567,913.8281 298.2661,912.6875 Q298.8911,911.5313 299.9849,910.9219 Q301.0786,910.2969 302.313,910.2969 Q303.0474,910.2969 303.688,910.4688 Q304.3442,910.625 304.8911,910.9844 Z " fill="#000000"/><text fill="#000000" font-family="sans-serif" font-size="14" lengthAdjust="spacing" textLength="86.3652" x="322.6255" y="920.8379">Administrador</text><line style="stroke:#181818;stroke-width:0.5;" x1="232.5" x2="466.6162" y1="931.1094" y2="931.1094"/><line style="stroke:#181818;stroke-width:0.5;" x1="232.5" x2="466.6162" y1="939.1094" y2="939.1094"/><ellipse cx="242.5" cy="953.4141" fill="#84BE84" rx="3" ry="3" style="stroke:#038048;stroke-width:1;"/><text fill="#000000" font-family="sans-serif" font-size="14" lengthAdjust="spacing" textLength="210.1162" x="251.5" y="957.6426">podeGerenciarSistema(): boolean</text></g><!--reverse link BibliotecaController to Livro--><g id="link_BibliotecaController_Livro"><path codeLine="65" d="M668.4584,567.3469 C698.9584,671.6369 740.75,853.1294 716.5,1017.6094 C713.59,1037.3694 708.41,1058.2394 702.7,1077.5394 " fill="none" id="BibliotecaController-backto-Livro" style="stroke:#181818;stroke-width:1;"/><polygon fill="#181818" points="665.09,555.8294,662.935,562.7109,668.4584,567.3469,670.6134,560.4654,665.09,555.8294" style="stroke:#181818;stroke-width:1;"/></g><!--reverse link BibliotecaController to Usuario--><g id="link_BibliotecaController_Usuario"><path codeLine="66" d="M579.2896,565.5745 C565.6396,584.7445 557.87,595.6694 543.93,615.2294 " fill="none" id="BibliotecaController-backto-Usuario" style="stroke:#181818;stroke-width:1;"/><polygon fill="#181818" points="586.25,555.7994,579.5114,558.3668,579.2896,565.5745,586.0282,563.0071,586.25,555.7994" style="stroke:#181818;stroke-width:1;"/></g><!--reverse link BibliotecaController to Emprestimo--><g id="link_BibliotecaController_Emprestimo"><path codeLine="67" d="M632.7002,567.6425 C625.5702,648.0625 615.42,762.6494 608.02,846.2494 " fill="none" id="BibliotecaController-backto-Emprestimo" style="stroke:#181818;stroke-width:1;"/><polygon fill="#181818" points="633.76,555.6894,629.2458,561.3127,632.7002,567.6425,637.2145,562.0192,633.76,555.6894" style="stroke:#181818;stroke-width:1;"/></g><!--link Emprestimo to Livro--><g id="link_Emprestimo_Livro"><path codeLine="69" d="M629.28,1017.7294 C635.97,1037.4094 641.1273,1052.5492 647.6873,1071.8292 " fill="none" id="Emprestimo-to-Livro" style="stroke:#181818;stroke-width:1;"/><polygon fill="#181818" points="649.62,1077.5094,650.5078,1067.7006,648.0094,1072.7759,642.9342,1070.2775,649.62,1077.5094" style="stroke:#181818;stroke-width:1;"/></g><!--link Emprestimo to Usuario--><g id="link_Emprestimo_Usuario"><path codeLine="70" d="M570.33,846.4594 C560.93,826.9594 553.1778,811.5005 542.6678,792.0105 " fill="none" id="Emprestimo-to-Usuario" style="stroke:#181818;stroke-width:1;"/><polygon fill="#181818" points="539.82,786.7294,540.571,796.5496,542.1932,791.1303,547.6125,792.7524,539.82,786.7294" style="stroke:#181818;stroke-width:1;"/></g><!--link Usuario to Emprestimo--><g id="link_Usuario_Emprestimo"><path codeLine="71" d="M514.38,786.7294 C523.81,806.2194 534.41,826.9594 544.89,846.4594 " fill="none" id="Usuario-Emprestimo" style="stroke:#181818;stroke-width:1;"/><text fill="#000000" font-family="sans-serif" font-size="13" lengthAdjust="spacing" textLength="7.23" x="509.7387" y="808.2737">1</text><text fill="#000000" font-family="sans-serif" font-size="13" lengthAdjust="spacing" textLength="19.5127" x="520.13" y="835.6176">0..*</text></g><!--reverse link Usuario to UsuarioComum--><g id="link_Usuario_UsuarioComum"><path codeLine="73" d="M363.4208,761.2282 C312.3508,787.3982 266.58,812.6694 213.5,846.6094 C188.46,862.6194 161.85,882.5594 140.86,899.0494 " fill="none" id="Usuario-backto-UsuarioComum" style="stroke:#181818;stroke-width:1;"/><polygon fill="none" points="379.44,753.0194,360.6845,755.8884,366.157,766.5679,379.44,753.0194" style="stroke:#181818;stroke-width:1;"/></g><!--reverse link Usuario to Administrador--><g id="link_Usuario_Administrador"><path codeLine="74" d="M424.8925,802.267 C402.0125,841.387 385.28,869.9594 368.28,899.0194 " fill="none" id="Usuario-backto-Administrador" style="stroke:#181818;stroke-width:1;"/><polygon fill="none" points="433.98,786.7294,419.7133,799.2379,430.0718,805.2962,433.98,786.7294" style="stroke:#181818;stroke-width:1;"/></g><!--link WebInterface to BibliotecaController--><g id="link_WebInterface_BibliotecaController"><path codeLine="76" d="M599.7,163.6494 C589.02,181.9794 578.97,202.8794 573.5,223.6094 C560.11,274.3194 561.6,290.5294 573.5,341.6094 C578.22,361.8594 583.8097,377.1473 592.8797,396.0973 " fill="none" id="WebInterface-to-BibliotecaController" style="stroke:#181818;stroke-width:1;stroke-dasharray:7.0,7.0;"/><polygon fill="#181818" points="595.47,401.5094,595.1925,391.6644,593.3114,396.9993,587.9765,395.1182,595.47,401.5094" style="stroke:#181818;stroke-width:1;"/></g><!--link WebInterface to AdminController--><g id="link_WebInterface_AdminController"><path codeLine="77" d="M674.51,163.7294 C685.76,182.9494 695.2511,199.15 706.4911,218.37 " fill="none" id="WebInterface-to-AdminController" style="stroke:#181818;stroke-width:1;stroke-dasharray:7.0,7.0;"/><polygon fill="#181818" points="709.52,223.5494,708.4295,213.7611,706.9959,219.2333,701.5237,217.7996,709.52,223.5494" style="stroke:#181818;stroke-width:1;"/></g><!--link AdminController to BibliotecaController--><g id="link_AdminController_BibliotecaController"><path codeLine="78" d="M712.6,341.8194 C702.64,360.5694 694.2738,376.3301 683.7338,396.1801 " fill="none" id="AdminController-to-BibliotecaController" style="stroke:#181818;stroke-width:1;stroke-dasharray:7.0,7.0;"/><polygon fill="#181818" points="680.92,401.4794,688.6736,395.4063,683.2649,397.0633,681.6079,391.6546,680.92,401.4794" style="stroke:#181818;stroke-width:1;"/></g><!--SRC=[TLHDRzim3BtxLmYvR6lWOBiQHO0sxOO1xMN5i6F1M5nAG1O3IVOEM__xRCcs8blnoNxyUdmaxSWf52za7JOW98fxEYfYXpM8KZmGd0m4mq61jMYBeXvUn4_RWY4MVmlHFoN9If1suKDpWvMmpf0-1SIYVeCK0aSTL-B8h11qm1oTEV7QTg18WZaObAXh0h8VFwL1Mx9tiY5zYRzFB9-eCtcEZbohqcAb97jcJHsgHGbipWQj0xCgBh5ZrQ79i7gOisMfFOQSrEJvgO7vQmArGV8KbE3W5UTSbUW1xD_mmkn9jZKihGdxZadEr3rEahFCuueSM3l3Ig6PUl2qRTKBRzsjLt-Va9zCu_gCniX_iaTrWijMyIdCM5BjHeY6aVWYVYkMDUFOF3W7putulLdri8NUYrWlmnB5CgP09nAFdDRDB5tlXcF81yniV-7nktPeVaED4rNxnd-UqLeuOJf3nI2ZCX4V0fu6AR-oQTQcPo3zWhNhsv-DxukJFt3JDXE1Cqjyp5r7AdBVb079vZBi6nf_qcRy-ooYFuWVgC0Fea7js1RPlRifot3bryqZx-iEKUwYk3ZBijoFgHVWb73w1sw-R7fSR3xlTZUR9DlaSVilyl3wfPP4ew989htRxRCNj_PQh7EnNE-hcVu3]--></g></svg>