<svg xmlns="http://www.w3.org/2000/svg" xmlns:xlink="http://www.w3.org/1999/xlink" contentStyleType="text/css" height="1676px" preserveAspectRatio="none" style="width:1680px;height:1676px;background:#FAFAFA;" version="1.1" viewBox="0 0 1680 1676" width="1680px" zoomAndPan="magnify"><title>Sistema de Biblioteca - Diagrama de Classes</title><defs/><g><rect fill="#FAFAFA" height="1676" style="stroke:none;stroke-width:1;" width="1680" x="0" y="0"/><text fill="#000000" font-family="sans-serif" font-size="14" font-weight="bold" lengthAdjust="spacing" textLength="298.0127" x="684.2119" y="24.5332">Sistema de Biblioteca - Diagrama de Classes</text><!--class Usuario--><g id="elem_Usuario"><rect codeLine="15" fill="#E8F5E8" height="234.7969" id="Usuario" rx="2.5" ry="2.5" style="stroke:#2E7D32;stroke-width:0.5;" width="246.2402" x="1183.5" y="843.6094"/><ellipse cx="1278.2495" cy="864.9609" fill="#ADD1B2" rx="11" ry="11" style="stroke:#181818;stroke-width:1;"/><path d="M1281.0151,860.8359 Q1281.1714,860.6172 1281.3589,860.5078 Q1281.5464,860.3984 1281.7651,860.3984 Q1282.1401,860.3984 1282.3745,860.6641 Q1282.6089,860.9141 1282.6089,861.5234 L1282.6089,862.9766 Q1282.6089,863.5859 1282.3745,863.8516 Q1282.1401,864.1172 1281.7651,864.1172 Q1281.4214,864.1172 1281.2183,863.9141 Q1281.0151,863.7266 1280.9058,863.2109 Q1280.8589,862.8516 1280.6714,862.6641 Q1280.3433,862.2891 1279.7339,862.0703 Q1279.1245,861.8516 1278.4995,861.8516 Q1277.7339,861.8516 1277.0933,862.1797 Q1276.4683,862.5078 1275.9683,863.2578 Q1275.4839,864.0078 1275.4839,865.0391 L1275.4839,866.1328 Q1275.4839,867.3672 1276.3745,868.1953 Q1277.2651,869.0078 1278.8589,869.0078 Q1279.7964,869.0078 1280.4526,868.7578 Q1280.8433,868.6016 1281.2651,868.1641 Q1281.5308,867.8984 1281.6714,867.8203 Q1281.8276,867.7422 1282.0308,867.7422 Q1282.3589,867.7422 1282.6089,868.0078 Q1282.8745,868.2578 1282.8745,868.6016 Q1282.8745,868.9453 1282.5308,869.3516 Q1282.0308,869.9297 1281.2339,870.2578 Q1280.1558,870.7109 1278.8589,870.7109 Q1277.3433,870.7109 1276.1401,870.0859 Q1275.1558,869.5859 1274.4683,868.5234 Q1273.7808,867.4453 1273.7808,866.1641 L1273.7808,865.0078 Q1273.7808,863.6797 1274.3901,862.5391 Q1275.0151,861.3828 1276.1089,860.7734 Q1277.2026,860.1484 1278.437,860.1484 Q1279.1714,860.1484 1279.812,860.3203 Q1280.4683,860.4766 1281.0151,860.8359 Z " fill="#000000"/><text fill="#000000" font-family="sans-serif" font-size="12" font-style="italic" lengthAdjust="spacing" textLength="43.3594" x="1301.1904" y="861.0664">&#171;Entity&#187;</text><text fill="#000000" font-family="sans-serif" font-size="14" lengthAdjust="spacing" textLength="48.2412" x="1298.7495" y="878.2363">Usuario</text><line style="stroke:#2E7D32;stroke-width:0.5;" x1="1184.5" x2="1428.7402" y1="886.3125" y2="886.3125"/><rect fill="none" height="6" style="stroke:#C82930;stroke-width:1;" width="6" x="1191.5" y="897.6172"/><text fill="#000000" font-family="sans-serif" font-size="14" lengthAdjust="spacing" textLength="33.4619" x="1203.5" y="904.8457">id: int</text><rect fill="none" height="6" style="stroke:#C82930;stroke-width:1;" width="6" x="1191.5" y="915.2266"/><text fill="#000000" font-family="sans-serif" font-size="14" lengthAdjust="spacing" textLength="77.0342" x="1203.5" y="922.4551">nome: string</text><rect fill="none" height="6" style="stroke:#C82930;stroke-width:1;" width="6" x="1191.5" y="932.8359"/><text fill="#000000" font-family="sans-serif" font-size="14" lengthAdjust="spacing" textLength="80.1582" x="1203.5" y="940.0645">senha: string</text><rect fill="none" height="6" style="stroke:#C82930;stroke-width:1;" width="6" x="1191.5" y="950.4453"/><text fill="#000000" font-family="sans-serif" font-size="14" lengthAdjust="spacing" textLength="87.1787" x="1203.5" y="957.6738">ativo: boolean</text><rect fill="none" height="6" style="stroke:#C82930;stroke-width:1;" width="6" x="1191.5" y="968.0547"/><text fill="#000000" font-family="sans-serif" font-size="14" lengthAdjust="spacing" textLength="64.5859" x="1203.5" y="975.2832">tipo: string</text><line style="stroke:#2E7D32;stroke-width:1;" x1="1184.5" x2="1428.7402" y1="982.3594" y2="982.3594"/><ellipse cx="1194.5" cy="996.6641" fill="#84BE84" rx="3" ry="3" style="stroke:#038048;stroke-width:1;"/><text fill="#000000" font-family="sans-serif" font-size="14" lengthAdjust="spacing" textLength="157.9854" x="1203.5" y="1000.8926">__init__(id, nome, senha)</text><ellipse cx="1194.5" cy="1014.2734" fill="#84BE84" rx="3" ry="3" style="stroke:#038048;stroke-width:1;"/><text fill="#000000" font-family="sans-serif" font-size="14" lengthAdjust="spacing" textLength="220.2402" x="1203.5" y="1018.502">validarCredenciais(senha): boolean</text><ellipse cx="1194.5" cy="1031.8828" fill="#84BE84" rx="3" ry="3" style="stroke:#038048;stroke-width:1;"/><text fill="#000000" font-family="sans-serif" font-size="14" lengthAdjust="spacing" textLength="116.7236" x="1203.5" y="1036.1113">isAdmin(): boolean</text><ellipse cx="1194.5" cy="1049.4922" fill="#84BE84" rx="3" ry="3" style="stroke:#038048;stroke-width:1;"/><text fill="#000000" font-family="sans-serif" font-size="14" lengthAdjust="spacing" textLength="77.0205" x="1203.5" y="1053.7207">ativar(): void</text><ellipse cx="1194.5" cy="1067.1016" fill="#84BE84" rx="3" ry="3" style="stroke:#038048;stroke-width:1;"/><text fill="#000000" font-family="sans-serif" font-size="14" lengthAdjust="spacing" textLength="99.5928" x="1203.5" y="1071.3301">desativar(): void</text></g><!--class Livro--><g id="elem_Livro"><rect codeLine="29" fill="#E8F5E8" height="199.5781" id="Livro" rx="2.5" ry="2.5" style="stroke:#2E7D32;stroke-width:0.5;" width="189.3994" x="675" y="1469.6094"/><ellipse cx="745.77" cy="1490.9609" fill="#ADD1B2" rx="11" ry="11" style="stroke:#181818;stroke-width:1;"/><path d="M748.5356,1486.8359 Q748.6919,1486.6172 748.8794,1486.5078 Q749.0669,1486.3984 749.2856,1486.3984 Q749.6606,1486.3984 749.895,1486.6641 Q750.1294,1486.9141 750.1294,1487.5234 L750.1294,1488.9766 Q750.1294,1489.5859 749.895,1489.8516 Q749.6606,1490.1172 749.2856,1490.1172 Q748.9419,1490.1172 748.7388,1489.9141 Q748.5356,1489.7266 748.4263,1489.2109 Q748.3794,1488.8516 748.1919,1488.6641 Q747.8638,1488.2891 747.2544,1488.0703 Q746.645,1487.8516 746.02,1487.8516 Q745.2544,1487.8516 744.6138,1488.1797 Q743.9888,1488.5078 743.4888,1489.2578 Q743.0044,1490.0078 743.0044,1491.0391 L743.0044,1492.1328 Q743.0044,1493.3672 743.895,1494.1953 Q744.7856,1495.0078 746.3794,1495.0078 Q747.3169,1495.0078 747.9731,1494.7578 Q748.3638,1494.6016 748.7856,1494.1641 Q749.0513,1493.8984 749.1919,1493.8203 Q749.3481,1493.7422 749.5513,1493.7422 Q749.8794,1493.7422 750.1294,1494.0078 Q750.395,1494.2578 750.395,1494.6016 Q750.395,1494.9453 750.0513,1495.3516 Q749.5513,1495.9297 748.7544,1496.2578 Q747.6763,1496.7109 746.3794,1496.7109 Q744.8638,1496.7109 743.6606,1496.0859 Q742.6763,1495.5859 741.9888,1494.5234 Q741.3013,1493.4453 741.3013,1492.1641 L741.3013,1491.0078 Q741.3013,1489.6797 741.9106,1488.5391 Q742.5356,1487.3828 743.6294,1486.7734 Q744.7231,1486.1484 745.9575,1486.1484 Q746.6919,1486.1484 747.3325,1486.3203 Q747.9888,1486.4766 748.5356,1486.8359 Z " fill="#000000"/><text fill="#000000" font-family="sans-serif" font-size="12" font-style="italic" lengthAdjust="spacing" textLength="43.3594" x="764.27" y="1487.0664">&#171;Entity&#187;</text><text fill="#000000" font-family="sans-serif" font-size="14" lengthAdjust="spacing" textLength="30.3447" x="770.7773" y="1504.2363">Livro</text><line style="stroke:#2E7D32;stroke-width:0.5;" x1="676" x2="863.3994" y1="1512.3125" y2="1512.3125"/><rect fill="none" height="6" style="stroke:#C82930;stroke-width:1;" width="6" x="683" y="1523.6172"/><text fill="#000000" font-family="sans-serif" font-size="14" lengthAdjust="spacing" textLength="33.4619" x="695" y="1530.8457">id: int</text><rect fill="none" height="6" style="stroke:#C82930;stroke-width:1;" width="6" x="683" y="1541.2266"/><text fill="#000000" font-family="sans-serif" font-size="14" lengthAdjust="spacing" textLength="71.5859" x="695" y="1548.4551">titulo: string</text><rect fill="none" height="6" style="stroke:#C82930;stroke-width:1;" width="6" x="683" y="1558.8359"/><text fill="#000000" font-family="sans-serif" font-size="14" lengthAdjust="spacing" textLength="119.8682" x="695" y="1566.0645">disponivel: boolean</text><line style="stroke:#2E7D32;stroke-width:1;" x1="676" x2="863.3994" y1="1573.1406" y2="1573.1406"/><ellipse cx="686" cy="1587.4453" fill="#84BE84" rx="3" ry="3" style="stroke:#038048;stroke-width:1;"/><text fill="#000000" font-family="sans-serif" font-size="14" lengthAdjust="spacing" textLength="106.6133" x="695" y="1591.6738">__init__(id, titulo)</text><ellipse cx="686" cy="1605.0547" fill="#84BE84" rx="3" ry="3" style="stroke:#038048;stroke-width:1;"/><text fill="#000000" font-family="sans-serif" font-size="14" lengthAdjust="spacing" textLength="129.9512" x="695" y="1609.2832">emprestar(): boolean</text><ellipse cx="686" cy="1622.6641" fill="#84BE84" rx="3" ry="3" style="stroke:#038048;stroke-width:1;"/><text fill="#000000" font-family="sans-serif" font-size="14" lengthAdjust="spacing" textLength="119.8477" x="695" y="1626.8926">devolver(): boolean</text><ellipse cx="686" cy="1640.2734" fill="#84BE84" rx="3" ry="3" style="stroke:#038048;stroke-width:1;"/><text fill="#000000" font-family="sans-serif" font-size="14" lengthAdjust="spacing" textLength="141.627" x="695" y="1644.502">isDisponivel(): boolean</text><ellipse cx="686" cy="1657.8828" fill="#84BE84" rx="3" ry="3" style="stroke:#038048;stroke-width:1;"/><text fill="#000000" font-family="sans-serif" font-size="14" lengthAdjust="spacing" textLength="163.3994" x="695" y="1662.1113">setDisponivel(status): void</text></g><!--class Emprestimo--><g id="elem_Emprestimo"><rect codeLine="41" fill="#E8F5E8" height="234.7969" id="Emprestimo" rx="2.5" ry="2.5" style="stroke:#2E7D32;stroke-width:0.5;" width="201.0957" x="669" y="1156.6094"/><ellipse cx="727.9565" cy="1177.9609" fill="#ADD1B2" rx="11" ry="11" style="stroke:#181818;stroke-width:1;"/><path d="M730.7222,1173.8359 Q730.8784,1173.6172 731.0659,1173.5078 Q731.2534,1173.3984 731.4722,1173.3984 Q731.8472,1173.3984 732.0815,1173.6641 Q732.3159,1173.9141 732.3159,1174.5234 L732.3159,1175.9766 Q732.3159,1176.5859 732.0815,1176.8516 Q731.8472,1177.1172 731.4722,1177.1172 Q731.1284,1177.1172 730.9253,1176.9141 Q730.7222,1176.7266 730.6128,1176.2109 Q730.5659,1175.8516 730.3784,1175.6641 Q730.0503,1175.2891 729.4409,1175.0703 Q728.8315,1174.8516 728.2065,1174.8516 Q727.4409,1174.8516 726.8003,1175.1797 Q726.1753,1175.5078 725.6753,1176.2578 Q725.1909,1177.0078 725.1909,1178.0391 L725.1909,1179.1328 Q725.1909,1180.3672 726.0815,1181.1953 Q726.9722,1182.0078 728.5659,1182.0078 Q729.5034,1182.0078 730.1597,1181.7578 Q730.5503,1181.6016 730.9722,1181.1641 Q731.2378,1180.8984 731.3784,1180.8203 Q731.5347,1180.7422 731.7378,1180.7422 Q732.0659,1180.7422 732.3159,1181.0078 Q732.5815,1181.2578 732.5815,1181.6016 Q732.5815,1181.9453 732.2378,1182.3516 Q731.7378,1182.9297 730.9409,1183.2578 Q729.8628,1183.7109 728.5659,1183.7109 Q727.0503,1183.7109 725.8472,1183.0859 Q724.8628,1182.5859 724.1753,1181.5234 Q723.4878,1180.4453 723.4878,1179.1641 L723.4878,1178.0078 Q723.4878,1176.6797 724.0972,1175.5391 Q724.7222,1174.3828 725.8159,1173.7734 Q726.9097,1173.1484 728.144,1173.1484 Q728.8784,1173.1484 729.519,1173.3203 Q730.1753,1173.4766 730.7222,1173.8359 Z " fill="#000000"/><text fill="#000000" font-family="sans-serif" font-size="12" font-style="italic" lengthAdjust="spacing" textLength="43.3594" x="764.1182" y="1174.0664">&#171;Entity&#187;</text><text fill="#000000" font-family="sans-serif" font-size="14" lengthAdjust="spacing" textLength="74.6826" x="748.4565" y="1191.2363">Emprestimo</text><line style="stroke:#2E7D32;stroke-width:0.5;" x1="670" x2="869.0957" y1="1199.3125" y2="1199.3125"/><rect fill="none" height="6" style="stroke:#C82930;stroke-width:1;" width="6" x="677" y="1210.6172"/><text fill="#000000" font-family="sans-serif" font-size="14" lengthAdjust="spacing" textLength="33.4619" x="689" y="1217.8457">id: int</text><rect fill="none" height="6" style="stroke:#C82930;stroke-width:1;" width="6" x="677" y="1228.2266"/><text fill="#000000" font-family="sans-serif" font-size="14" lengthAdjust="spacing" textLength="66.917" x="689" y="1235.4551">livro_id: int</text><rect fill="none" height="6" style="stroke:#C82930;stroke-width:1;" width="6" x="677" y="1245.8359"/><text fill="#000000" font-family="sans-serif" font-size="14" lengthAdjust="spacing" textLength="105.041" x="689" y="1253.0645">titulo_livro: string</text><rect fill="none" height="6" style="stroke:#C82930;stroke-width:1;" width="6" x="677" y="1263.4453"/><text fill="#000000" font-family="sans-serif" font-size="14" lengthAdjust="spacing" textLength="87.165" x="689" y="1270.6738">usuario_id: int</text><rect fill="none" height="6" style="stroke:#C82930;stroke-width:1;" width="6" x="677" y="1281.0547"/><text fill="#000000" font-family="sans-serif" font-size="14" lengthAdjust="spacing" textLength="169.6406" x="689" y="1288.2832">data_emprestimo: datetime</text><rect fill="none" height="6" style="stroke:#C82930;stroke-width:1;" width="6" x="677" y="1298.6641"/><text fill="#000000" font-family="sans-serif" font-size="14" lengthAdjust="spacing" textLength="160.3369" x="689" y="1305.8926">data_devolucao: datetime</text><line style="stroke:#2E7D32;stroke-width:1;" x1="670" x2="869.0957" y1="1312.9688" y2="1312.9688"/><ellipse cx="680" cy="1327.2734" fill="#84BE84" rx="3" ry="3" style="stroke:#038048;stroke-width:1;"/><text fill="#000000" font-family="sans-serif" font-size="14" lengthAdjust="spacing" textLength="175.0957" x="689" y="1331.502">__init__(livro_id, usuario_id)</text><ellipse cx="680" cy="1344.8828" fill="#84BE84" rx="3" ry="3" style="stroke:#038048;stroke-width:1;"/><text fill="#000000" font-family="sans-serif" font-size="14" lengthAdjust="spacing" textLength="95.7031" x="689" y="1349.1113">devolver(): void</text><ellipse cx="680" cy="1362.4922" fill="#84BE84" rx="3" ry="3" style="stroke:#038048;stroke-width:1;"/><text fill="#000000" font-family="sans-serif" font-size="14" lengthAdjust="spacing" textLength="138.5166" x="689" y="1366.7207">isDevolvido(): boolean</text><ellipse cx="680" cy="1380.1016" fill="#84BE84" rx="3" ry="3" style="stroke:#038048;stroke-width:1;"/><text fill="#000000" font-family="sans-serif" font-size="14" lengthAdjust="spacing" textLength="104.2686" x="689" y="1384.3301">getDuracao(): int</text></g><!--class BibliotecaController--><g id="elem_BibliotecaController"><rect codeLine="57" fill="#E8F5E8" height="199.5781" id="BibliotecaController" rx="2.5" ry="2.5" style="stroke:#2E7D32;stroke-width:0.5;" width="274.9854" x="469" y="565.6094"/><ellipse cx="541.5464" cy="586.9609" fill="#ADD1B2" rx="11" ry="11" style="stroke:#181818;stroke-width:1;"/><path d="M544.312,582.8359 Q544.4683,582.6172 544.6558,582.5078 Q544.8433,582.3984 545.062,582.3984 Q545.437,582.3984 545.6714,582.6641 Q545.9058,582.9141 545.9058,583.5234 L545.9058,584.9766 Q545.9058,585.5859 545.6714,585.8516 Q545.437,586.1172 545.062,586.1172 Q544.7183,586.1172 544.5151,585.9141 Q544.312,585.7266 544.2026,585.2109 Q544.1558,584.8516 543.9683,584.6641 Q543.6401,584.2891 543.0308,584.0703 Q542.4214,583.8516 541.7964,583.8516 Q541.0308,583.8516 540.3901,584.1797 Q539.7651,584.5078 539.2651,585.2578 Q538.7808,586.0078 538.7808,587.0391 L538.7808,588.1328 Q538.7808,589.3672 539.6714,590.1953 Q540.562,591.0078 542.1558,591.0078 Q543.0933,591.0078 543.7495,590.7578 Q544.1401,590.6016 544.562,590.1641 Q544.8276,589.8984 544.9683,589.8203 Q545.1245,589.7422 545.3276,589.7422 Q545.6558,589.7422 545.9058,590.0078 Q546.1714,590.2578 546.1714,590.6016 Q546.1714,590.9453 545.8276,591.3516 Q545.3276,591.9297 544.5308,592.2578 Q543.4526,592.7109 542.1558,592.7109 Q540.6401,592.7109 539.437,592.0859 Q538.4526,591.5859 537.7651,590.5234 Q537.0776,589.4453 537.0776,588.1641 L537.0776,587.0078 Q537.0776,585.6797 537.687,584.5391 Q538.312,583.3828 539.4058,582.7734 Q540.4995,582.1484 541.7339,582.1484 Q542.4683,582.1484 543.1089,582.3203 Q543.7651,582.4766 544.312,582.8359 Z " fill="#000000"/><text fill="#000000" font-family="sans-serif" font-size="12" font-style="italic" lengthAdjust="spacing" textLength="65.3672" x="590.0591" y="583.0664">&#171;Controller&#187;</text><text fill="#000000" font-family="sans-serif" font-size="14" lengthAdjust="spacing" textLength="121.3926" x="562.0464" y="600.2363">BibliotecaController</text><line style="stroke:#2E7D32;stroke-width:0.5;" x1="470" x2="742.9854" y1="608.3125" y2="608.3125"/><rect fill="none" height="6" style="stroke:#C82930;stroke-width:1;" width="6" x="477" y="619.6172"/><text fill="#000000" font-family="sans-serif" font-size="14" lengthAdjust="spacing" textLength="108.9307" x="489" y="626.8457">livros: List&lt;Livro&gt;</text><rect fill="none" height="6" style="stroke:#C82930;stroke-width:1;" width="6" x="477" y="637.2266"/><text fill="#000000" font-family="sans-serif" font-size="14" lengthAdjust="spacing" textLength="147.0752" x="489" y="644.4551">usuarios: List&lt;Usuario&gt;</text><rect fill="none" height="6" style="stroke:#C82930;stroke-width:1;" width="6" x="477" y="654.8359"/><text fill="#000000" font-family="sans-serif" font-size="14" lengthAdjust="spacing" textLength="200.7305" x="489" y="662.0645">emprestimos: List&lt;Emprestimo&gt;</text><rect fill="none" height="6" style="stroke:#C82930;stroke-width:1;" width="6" x="477" y="672.4453"/><text fill="#000000" font-family="sans-serif" font-size="14" lengthAdjust="spacing" textLength="124.4961" x="489" y="679.6738">proximo_id_livro: int</text><line style="stroke:#2E7D32;stroke-width:1;" x1="470" x2="742.9854" y1="686.75" y2="686.75"/><ellipse cx="480" cy="701.0547" fill="#84BE84" rx="3" ry="3" style="stroke:#038048;stroke-width:1;"/><text fill="#000000" font-family="sans-serif" font-size="14" lengthAdjust="spacing" textLength="198.4199" x="489" y="705.2832">login(username, password): dict</text><ellipse cx="480" cy="718.6641" fill="#84BE84" rx="3" ry="3" style="stroke:#038048;stroke-width:1;"/><text fill="#000000" font-family="sans-serif" font-size="14" lengthAdjust="spacing" textLength="152.4893" x="489" y="722.8926">listarLivros(): List&lt;Livro&gt;</text><ellipse cx="480" cy="736.2734" fill="#84BE84" rx="3" ry="3" style="stroke:#038048;stroke-width:1;"/><text fill="#000000" font-family="sans-serif" font-size="14" lengthAdjust="spacing" textLength="248.9854" x="489" y="740.502">emprestarLivro(livro_id, usuario_id): dict</text><ellipse cx="480" cy="753.8828" fill="#84BE84" rx="3" ry="3" style="stroke:#038048;stroke-width:1;"/><text fill="#000000" font-family="sans-serif" font-size="14" lengthAdjust="spacing" textLength="129.9443" x="489" y="758.1113">resetDatabase(): dict</text></g><!--class AdminController--><g id="elem_AdminController"><rect codeLine="69" fill="#E8F5E8" height="146.75" id="AdminController" rx="2.5" ry="2.5" style="stroke:#2E7D32;stroke-width:0.5;" width="305.2891" x="7" y="340.6094"/><ellipse cx="105.2085" cy="361.9609" fill="#ADD1B2" rx="11" ry="11" style="stroke:#181818;stroke-width:1;"/><path d="M107.9741,357.8359 Q108.1304,357.6172 108.3179,357.5078 Q108.5054,357.3984 108.7241,357.3984 Q109.0991,357.3984 109.3335,357.6641 Q109.5679,357.9141 109.5679,358.5234 L109.5679,359.9766 Q109.5679,360.5859 109.3335,360.8516 Q109.0991,361.1172 108.7241,361.1172 Q108.3804,361.1172 108.1772,360.9141 Q107.9741,360.7266 107.8647,360.2109 Q107.8179,359.8516 107.6304,359.6641 Q107.3022,359.2891 106.6929,359.0703 Q106.0835,358.8516 105.4585,358.8516 Q104.6929,358.8516 104.0522,359.1797 Q103.4272,359.5078 102.9272,360.2578 Q102.4429,361.0078 102.4429,362.0391 L102.4429,363.1328 Q102.4429,364.3672 103.3335,365.1953 Q104.2241,366.0078 105.8179,366.0078 Q106.7554,366.0078 107.4116,365.7578 Q107.8022,365.6016 108.2241,365.1641 Q108.4897,364.8984 108.6304,364.8203 Q108.7866,364.7422 108.9897,364.7422 Q109.3179,364.7422 109.5679,365.0078 Q109.8335,365.2578 109.8335,365.6016 Q109.8335,365.9453 109.4897,366.3516 Q108.9897,366.9297 108.1929,367.2578 Q107.1147,367.7109 105.8179,367.7109 Q104.3022,367.7109 103.0991,367.0859 Q102.1147,366.5859 101.4272,365.5234 Q100.7397,364.4453 100.7397,363.1641 L100.7397,362.0078 Q100.7397,360.6797 101.3491,359.5391 Q101.9741,358.3828 103.0679,357.7734 Q104.1616,357.1484 105.396,357.1484 Q106.1304,357.1484 106.771,357.3203 Q107.4272,357.4766 107.9741,357.8359 Z " fill="#000000"/><text fill="#000000" font-family="sans-serif" font-size="12" font-style="italic" lengthAdjust="spacing" textLength="65.3672" x="143.2109" y="358.0664">&#171;Controller&#187;</text><text fill="#000000" font-family="sans-serif" font-size="14" lengthAdjust="spacing" textLength="100.3721" x="125.7085" y="375.2363">AdminController</text><line style="stroke:#2E7D32;stroke-width:0.5;" x1="8" x2="311.2891" y1="383.3125" y2="383.3125"/><line style="stroke:#2E7D32;stroke-width:1;" x1="8" x2="311.2891" y1="391.3125" y2="391.3125"/><ellipse cx="18" cy="405.6172" fill="#84BE84" rx="3" ry="3" style="stroke:#038048;stroke-width:1;"/><text fill="#000000" font-family="sans-serif" font-size="14" lengthAdjust="spacing" textLength="155.6201" x="27" y="409.8457">adicionarLivro(titulo): dict</text><ellipse cx="18" cy="423.2266" fill="#84BE84" rx="3" ry="3" style="stroke:#038048;stroke-width:1;"/><text fill="#000000" font-family="sans-serif" font-size="14" lengthAdjust="spacing" textLength="213.9648" x="27" y="427.4551">devolverLivro(emprestimo_id): dict</text><ellipse cx="18" cy="440.8359" fill="#84BE84" rx="3" ry="3" style="stroke:#038048;stroke-width:1;"/><text fill="#000000" font-family="sans-serif" font-size="14" lengthAdjust="spacing" textLength="241.165" x="27" y="445.0645">listarEmprestimos(): List&lt;Emprestimo&gt;</text><ellipse cx="18" cy="458.4453" fill="#84BE84" rx="3" ry="3" style="stroke:#038048;stroke-width:1;"/><text fill="#000000" font-family="sans-serif" font-size="14" lengthAdjust="spacing" textLength="279.2891" x="27" y="462.6738">listarEmprestimosAtivos(): List&lt;Emprestimo&gt;</text><ellipse cx="18" cy="476.0547" fill="#84BE84" rx="3" ry="3" style="stroke:#038048;stroke-width:1;"/><text fill="#000000" font-family="sans-serif" font-size="14" lengthAdjust="spacing" textLength="217.8887" x="27" y="480.2832">validarPrivilegios(usuario): boolean</text></g><!--class AuthController--><g id="elem_AuthController"><rect codeLine="78" fill="#E8F5E8" height="129.1406" id="AuthController" rx="2.5" ry="2.5" style="stroke:#2E7D32;stroke-width:0.5;" width="299.9365" x="1373.5" y="601.1094"/><ellipse cx="1474.4736" cy="622.4609" fill="#ADD1B2" rx="11" ry="11" style="stroke:#181818;stroke-width:1;"/><path d="M1477.2393,618.3359 Q1477.3955,618.1172 1477.583,618.0078 Q1477.7705,617.8984 1477.9893,617.8984 Q1478.3643,617.8984 1478.5986,618.1641 Q1478.833,618.4141 1478.833,619.0234 L1478.833,620.4766 Q1478.833,621.0859 1478.5986,621.3516 Q1478.3643,621.6172 1477.9893,621.6172 Q1477.6455,621.6172 1477.4424,621.4141 Q1477.2393,621.2266 1477.1299,620.7109 Q1477.083,620.3516 1476.8955,620.1641 Q1476.5674,619.7891 1475.958,619.5703 Q1475.3486,619.3516 1474.7236,619.3516 Q1473.958,619.3516 1473.3174,619.6797 Q1472.6924,620.0078 1472.1924,620.7578 Q1471.708,621.5078 1471.708,622.5391 L1471.708,623.6328 Q1471.708,624.8672 1472.5986,625.6953 Q1473.4893,626.5078 1475.083,626.5078 Q1476.0205,626.5078 1476.6768,626.2578 Q1477.0674,626.1016 1477.4893,625.6641 Q1477.7549,625.3984 1477.8955,625.3203 Q1478.0518,625.2422 1478.2549,625.2422 Q1478.583,625.2422 1478.833,625.5078 Q1479.0986,625.7578 1479.0986,626.1016 Q1479.0986,626.4453 1478.7549,626.8516 Q1478.2549,627.4297 1477.458,627.7578 Q1476.3799,628.2109 1475.083,628.2109 Q1473.5674,628.2109 1472.3643,627.5859 Q1471.3799,627.0859 1470.6924,626.0234 Q1470.0049,624.9453 1470.0049,623.6641 L1470.0049,622.5078 Q1470.0049,621.1797 1470.6143,620.0391 Q1471.2393,618.8828 1472.333,618.2734 Q1473.4268,617.6484 1474.6611,617.6484 Q1475.3955,617.6484 1476.0361,617.8203 Q1476.6924,617.9766 1477.2393,618.3359 Z " fill="#000000"/><text fill="#000000" font-family="sans-serif" font-size="12" font-style="italic" lengthAdjust="spacing" textLength="65.3672" x="1507.0347" y="618.5664">&#171;Controller&#187;</text><text fill="#000000" font-family="sans-serif" font-size="14" lengthAdjust="spacing" textLength="89.4893" x="1494.9736" y="635.7363">AuthController</text><line style="stroke:#2E7D32;stroke-width:0.5;" x1="1374.5" x2="1672.4365" y1="643.8125" y2="643.8125"/><line style="stroke:#2E7D32;stroke-width:1;" x1="1374.5" x2="1672.4365" y1="651.8125" y2="651.8125"/><ellipse cx="1384.5" cy="666.1172" fill="#84BE84" rx="3" ry="3" style="stroke:#038048;stroke-width:1;"/><text fill="#000000" font-family="sans-serif" font-size="14" lengthAdjust="spacing" textLength="256.7783" x="1393.5" y="670.3457">autenticar(username, password): Usuario</text><ellipse cx="1384.5" cy="683.7266" fill="#84BE84" rx="3" ry="3" style="stroke:#038048;stroke-width:1;"/><text fill="#000000" font-family="sans-serif" font-size="14" lengthAdjust="spacing" textLength="273.9365" x="1393.5" y="687.9551">validarCredenciais(usuario, senha): boolean</text><ellipse cx="1384.5" cy="701.3359" fill="#84BE84" rx="3" ry="3" style="stroke:#038048;stroke-width:1;"/><text fill="#000000" font-family="sans-serif" font-size="14" lengthAdjust="spacing" textLength="267.6885" x="1393.5" y="705.5645">controlarAcesso(usuario, recurso): boolean</text><ellipse cx="1384.5" cy="718.9453" fill="#84BE84" rx="3" ry="3" style="stroke:#038048;stroke-width:1;"/><text fill="#000000" font-family="sans-serif" font-size="14" lengthAdjust="spacing" textLength="126.8477" x="1393.5" y="723.1738">logout(usuario): void</text></g><!--class WebInterface--><g id="elem_WebInterface"><rect codeLine="88" fill="#E8F5E8" height="217.1875" id="WebInterface" rx="2.5" ry="2.5" style="stroke:#2E7D32;stroke-width:0.5;" width="285.8818" x="604.5" y="45.6094"/><ellipse cx="701.5601" cy="66.9609" fill="#ADD1B2" rx="11" ry="11" style="stroke:#181818;stroke-width:1;"/><path d="M704.3257,62.8359 Q704.4819,62.6172 704.6694,62.5078 Q704.8569,62.3984 705.0757,62.3984 Q705.4507,62.3984 705.6851,62.6641 Q705.9194,62.9141 705.9194,63.5234 L705.9194,64.9766 Q705.9194,65.5859 705.6851,65.8516 Q705.4507,66.1172 705.0757,66.1172 Q704.7319,66.1172 704.5288,65.9141 Q704.3257,65.7266 704.2163,65.2109 Q704.1694,64.8516 703.9819,64.6641 Q703.6538,64.2891 703.0444,64.0703 Q702.4351,63.8516 701.8101,63.8516 Q701.0444,63.8516 700.4038,64.1797 Q699.7788,64.5078 699.2788,65.2578 Q698.7944,66.0078 698.7944,67.0391 L698.7944,68.1328 Q698.7944,69.3672 699.6851,70.1953 Q700.5757,71.0078 702.1694,71.0078 Q703.1069,71.0078 703.7632,70.7578 Q704.1538,70.6016 704.5757,70.1641 Q704.8413,69.8984 704.9819,69.8203 Q705.1382,69.7422 705.3413,69.7422 Q705.6694,69.7422 705.9194,70.0078 Q706.1851,70.2578 706.1851,70.6016 Q706.1851,70.9453 705.8413,71.3516 Q705.3413,71.9297 704.5444,72.2578 Q703.4663,72.7109 702.1694,72.7109 Q700.6538,72.7109 699.4507,72.0859 Q698.4663,71.5859 697.7788,70.5234 Q697.0913,69.4453 697.0913,68.1641 L697.0913,67.0078 Q697.0913,65.6797 697.7007,64.5391 Q698.3257,63.3828 699.4194,62.7734 Q700.5132,62.1484 701.7476,62.1484 Q702.4819,62.1484 703.1226,62.3203 Q703.7788,62.4766 704.3257,62.8359 Z " fill="#000000"/><text fill="#000000" font-family="sans-serif" font-size="12" font-style="italic" lengthAdjust="spacing" textLength="64.7168" x="731.3325" y="63.0664">&#171;Boundary&#187;</text><text fill="#000000" font-family="sans-serif" font-size="14" lengthAdjust="spacing" textLength="83.2617" x="722.0601" y="80.2363">WebInterface</text><line style="stroke:#2E7D32;stroke-width:0.5;" x1="605.5" x2="889.3818" y1="88.3125" y2="88.3125"/><rect fill="none" height="6" style="stroke:#C82930;stroke-width:1;" width="6" x="612.5" y="99.6172"/><text fill="#000000" font-family="sans-serif" font-size="14" lengthAdjust="spacing" textLength="159.4893" x="624.5" y="106.8457">loginForm: HTMLElement</text><rect fill="none" height="6" style="stroke:#C82930;stroke-width:1;" width="6" x="612.5" y="117.2266"/><text fill="#000000" font-family="sans-serif" font-size="14" lengthAdjust="spacing" textLength="174.2891" x="624.5" y="124.4551">mainSection: HTMLElement</text><rect fill="none" height="6" style="stroke:#C82930;stroke-width:1;" width="6" x="612.5" y="134.8359"/><text fill="#000000" font-family="sans-serif" font-size="14" lengthAdjust="spacing" textLength="182.0752" x="624.5" y="142.0645">adminSection: HTMLElement</text><line style="stroke:#2E7D32;stroke-width:1;" x1="605.5" x2="889.3818" y1="149.1406" y2="149.1406"/><ellipse cx="615.5" cy="163.4453" fill="#84BE84" rx="3" ry="3" style="stroke:#038048;stroke-width:1;"/><text fill="#000000" font-family="sans-serif" font-size="14" lengthAdjust="spacing" textLength="259.8818" x="624.5" y="167.6738">showMessage(message, isSuccess): void</text><ellipse cx="615.5" cy="181.0547" fill="#84BE84" rx="3" ry="3" style="stroke:#038048;stroke-width:1;"/><text fill="#000000" font-family="sans-serif" font-size="14" lengthAdjust="spacing" textLength="106.5996" x="624.5" y="185.2832">loadLivros(): void</text><ellipse cx="615.5" cy="198.6641" fill="#84BE84" rx="3" ry="3" style="stroke:#038048;stroke-width:1;"/><text fill="#000000" font-family="sans-serif" font-size="14" lengthAdjust="spacing" textLength="142.3857" x="624.5" y="202.8926">showLoginForm(): void</text><ellipse cx="615.5" cy="216.2734" fill="#84BE84" rx="3" ry="3" style="stroke:#038048;stroke-width:1;"/><text fill="#000000" font-family="sans-serif" font-size="14" lengthAdjust="spacing" textLength="152.5098" x="624.5" y="220.502">showMainSection(): void</text><ellipse cx="615.5" cy="233.8828" fill="#84BE84" rx="3" ry="3" style="stroke:#038048;stroke-width:1;"/><text fill="#000000" font-family="sans-serif" font-size="14" lengthAdjust="spacing" textLength="161.8477" x="624.5" y="238.1113">showAdminSection(): void</text><ellipse cx="615.5" cy="251.4922" fill="#84BE84" rx="3" ry="3" style="stroke:#038048;stroke-width:1;"/><text fill="#000000" font-family="sans-serif" font-size="14" lengthAdjust="spacing" textLength="80.9307" x="624.5" y="255.7207">logout(): void</text></g><!--class APIEndpoints--><g id="elem_APIEndpoints"><rect codeLine="101" fill="#E8F5E8" height="199.5781" id="APIEndpoints" rx="2.5" ry="2.5" style="stroke:#2E7D32;stroke-width:0.5;" width="225.1719" x="175" y="54.1094"/><ellipse cx="240.9189" cy="75.4609" fill="#ADD1B2" rx="11" ry="11" style="stroke:#181818;stroke-width:1;"/><path d="M243.6846,71.3359 Q243.8408,71.1172 244.0283,71.0078 Q244.2158,70.8984 244.4346,70.8984 Q244.8096,70.8984 245.0439,71.1641 Q245.2783,71.4141 245.2783,72.0234 L245.2783,73.4766 Q245.2783,74.0859 245.0439,74.3516 Q244.8096,74.6172 244.4346,74.6172 Q244.0908,74.6172 243.8877,74.4141 Q243.6846,74.2266 243.5752,73.7109 Q243.5283,73.3516 243.3408,73.1641 Q243.0127,72.7891 242.4033,72.5703 Q241.7939,72.3516 241.1689,72.3516 Q240.4033,72.3516 239.7627,72.6797 Q239.1377,73.0078 238.6377,73.7578 Q238.1533,74.5078 238.1533,75.5391 L238.1533,76.6328 Q238.1533,77.8672 239.0439,78.6953 Q239.9346,79.5078 241.5283,79.5078 Q242.4658,79.5078 243.1221,79.2578 Q243.5127,79.1016 243.9346,78.6641 Q244.2002,78.3984 244.3408,78.3203 Q244.4971,78.2422 244.7002,78.2422 Q245.0283,78.2422 245.2783,78.5078 Q245.5439,78.7578 245.5439,79.1016 Q245.5439,79.4453 245.2002,79.8516 Q244.7002,80.4297 243.9033,80.7578 Q242.8252,81.2109 241.5283,81.2109 Q240.0127,81.2109 238.8096,80.5859 Q237.8252,80.0859 237.1377,79.0234 Q236.4502,77.9453 236.4502,76.6641 L236.4502,75.5078 Q236.4502,74.1797 237.0596,73.0391 Q237.6846,71.8828 238.7783,71.2734 Q239.8721,70.6484 241.1064,70.6484 Q241.8408,70.6484 242.4814,70.8203 Q243.1377,70.9766 243.6846,71.3359 Z " fill="#000000"/><text fill="#000000" font-family="sans-serif" font-size="12" font-style="italic" lengthAdjust="spacing" textLength="64.7168" x="271.4775" y="71.5664">&#171;Boundary&#187;</text><text fill="#000000" font-family="sans-serif" font-size="14" lengthAdjust="spacing" textLength="84.834" x="261.4189" y="88.7363">APIEndpoints</text><line style="stroke:#2E7D32;stroke-width:0.5;" x1="176" x2="399.1719" y1="96.8125" y2="96.8125"/><line style="stroke:#2E7D32;stroke-width:1;" x1="176" x2="399.1719" y1="104.8125" y2="104.8125"/><ellipse cx="186" cy="119.1172" fill="none" rx="3" ry="3" style="stroke:#038048;stroke-width:1;"/><text fill="#000000" font-family="sans-serif" font-size="14" lengthAdjust="spacing" textLength="75.4756" x="195" y="123.3457">POST /login</text><ellipse cx="186" cy="136.7266" fill="none" rx="3" ry="3" style="stroke:#038048;stroke-width:1;"/><text fill="#000000" font-family="sans-serif" font-size="14" lengthAdjust="spacing" textLength="69.2275" x="195" y="140.9551">GET /livros</text><ellipse cx="186" cy="154.3359" fill="none" rx="3" ry="3" style="stroke:#038048;stroke-width:1;"/><text fill="#000000" font-family="sans-serif" font-size="14" lengthAdjust="spacing" textLength="133.0547" x="195" y="158.5645">POST /emprestar/{id}</text><ellipse cx="186" cy="171.9453" fill="none" rx="3" ry="3" style="stroke:#038048;stroke-width:1;"/><text fill="#000000" font-family="sans-serif" font-size="14" lengthAdjust="spacing" textLength="120.5859" x="195" y="176.1738">POST /admin/livros</text><ellipse cx="186" cy="189.5547" fill="none" rx="3" ry="3" style="stroke:#038048;stroke-width:1;"/><text fill="#000000" font-family="sans-serif" font-size="14" lengthAdjust="spacing" textLength="164.9717" x="195" y="193.7832">POST /admin/devolver/{id}</text><ellipse cx="186" cy="207.1641" fill="none" rx="3" ry="3" style="stroke:#038048;stroke-width:1;"/><text fill="#000000" font-family="sans-serif" font-size="14" lengthAdjust="spacing" textLength="158.71" x="195" y="211.3926">GET /admin/emprestimos</text><ellipse cx="186" cy="224.7734" fill="none" rx="3" ry="3" style="stroke:#038048;stroke-width:1;"/><text fill="#000000" font-family="sans-serif" font-size="14" lengthAdjust="spacing" textLength="199.1719" x="195" y="229.002">GET /admin/emprestimos/ativos</text><ellipse cx="186" cy="242.3828" fill="none" rx="3" ry="3" style="stroke:#038048;stroke-width:1;"/><text fill="#000000" font-family="sans-serif" font-size="14" lengthAdjust="spacing" textLength="77.0205" x="195" y="246.6113">POST /reset</text></g><!--class DatabaseSimulator--><g id="elem_DatabaseSimulator"><rect codeLine="115" fill="#E8F5E8" height="111.5313" id="DatabaseSimulator" rx="2.5" ry="2.5" style="stroke:#2E7D32;stroke-width:0.5;" width="234.5234" x="913" y="905.1094"/><ellipse cx="966.481" cy="926.4609" fill="#ADD1B2" rx="11" ry="11" style="stroke:#181818;stroke-width:1;"/><path d="M969.2466,922.3359 Q969.4028,922.1172 969.5903,922.0078 Q969.7778,921.8984 969.9966,921.8984 Q970.3716,921.8984 970.606,922.1641 Q970.8403,922.4141 970.8403,923.0234 L970.8403,924.4766 Q970.8403,925.0859 970.606,925.3516 Q970.3716,925.6172 969.9966,925.6172 Q969.6528,925.6172 969.4497,925.4141 Q969.2466,925.2266 969.1372,924.7109 Q969.0903,924.3516 968.9028,924.1641 Q968.5747,923.7891 967.9653,923.5703 Q967.356,923.3516 966.731,923.3516 Q965.9653,923.3516 965.3247,923.6797 Q964.6997,924.0078 964.1997,924.7578 Q963.7153,925.5078 963.7153,926.5391 L963.7153,927.6328 Q963.7153,928.8672 964.606,929.6953 Q965.4966,930.5078 967.0903,930.5078 Q968.0278,930.5078 968.6841,930.2578 Q969.0747,930.1016 969.4966,929.6641 Q969.7622,929.3984 969.9028,929.3203 Q970.0591,929.2422 970.2622,929.2422 Q970.5903,929.2422 970.8403,929.5078 Q971.106,929.7578 971.106,930.1016 Q971.106,930.4453 970.7622,930.8516 Q970.2622,931.4297 969.4653,931.7578 Q968.3872,932.2109 967.0903,932.2109 Q965.5747,932.2109 964.3716,931.5859 Q963.3872,931.0859 962.6997,930.0234 Q962.0122,928.9453 962.0122,927.6641 L962.0122,926.5078 Q962.0122,925.1797 962.6216,924.0391 Q963.2466,922.8828 964.3403,922.2734 Q965.4341,921.6484 966.6685,921.6484 Q967.4028,921.6484 968.0435,921.8203 Q968.6997,921.9766 969.2466,922.3359 Z " fill="#000000"/><text fill="#000000" font-family="sans-serif" font-size="12" font-style="italic" lengthAdjust="spacing" textLength="42.6797" x="1025.1719" y="922.5664">&#171;Utility&#187;</text><text fill="#000000" font-family="sans-serif" font-size="14" lengthAdjust="spacing" textLength="119.0615" x="986.981" y="939.7363">DatabaseSimulator</text><line style="stroke:#2E7D32;stroke-width:0.5;" x1="914" x2="1146.5234" y1="947.8125" y2="947.8125"/><line style="stroke:#2E7D32;stroke-width:0.5;" x1="914" x2="1146.5234" y1="955.8125" y2="955.8125"/><ellipse cx="924" cy="970.1172" fill="#84BE84" rx="3" ry="3" style="stroke:#038048;stroke-width:1;"/><text fill="#000000" font-family="sans-serif" font-size="14" lengthAdjust="spacing" text-decoration="underline" textLength="172.7305" x="933" y="974.3457">initializeLivros(): List&lt;Livro&gt;</text><ellipse cx="924" cy="987.7266" fill="#84BE84" rx="3" ry="3" style="stroke:#038048;stroke-width:1;"/><text fill="#000000" font-family="sans-serif" font-size="14" lengthAdjust="spacing" text-decoration="underline" textLength="208.5234" x="933" y="991.9551">initializeUsuarios(): List&lt;Usuario&gt;</text><ellipse cx="924" cy="1005.3359" fill="#84BE84" rx="3" ry="3" style="stroke:#038048;stroke-width:1;"/><text fill="#000000" font-family="sans-serif" font-size="14" lengthAdjust="spacing" text-decoration="underline" textLength="141.6064" x="933" y="1009.5645">resetToDefaults(): void</text></g><!--class ValidationUtils--><g id="elem_ValidationUtils"><rect codeLine="121" fill="#E8F5E8" height="111.5313" id="ValidationUtils" rx="2.5" ry="2.5" style="stroke:#2E7D32;stroke-width:0.5;" width="276.585" x="122" y="905.1094"/><ellipse cx="211.6875" cy="926.4609" fill="#ADD1B2" rx="11" ry="11" style="stroke:#181818;stroke-width:1;"/><path d="M214.4531,922.3359 Q214.6094,922.1172 214.7969,922.0078 Q214.9844,921.8984 215.2031,921.8984 Q215.5781,921.8984 215.8125,922.1641 Q216.0469,922.4141 216.0469,923.0234 L216.0469,924.4766 Q216.0469,925.0859 215.8125,925.3516 Q215.5781,925.6172 215.2031,925.6172 Q214.8594,925.6172 214.6563,925.4141 Q214.4531,925.2266 214.3438,924.7109 Q214.2969,924.3516 214.1094,924.1641 Q213.7813,923.7891 213.1719,923.5703 Q212.5625,923.3516 211.9375,923.3516 Q211.1719,923.3516 210.5313,923.6797 Q209.9063,924.0078 209.4063,924.7578 Q208.9219,925.5078 208.9219,926.5391 L208.9219,927.6328 Q208.9219,928.8672 209.8125,929.6953 Q210.7031,930.5078 212.2969,930.5078 Q213.2344,930.5078 213.8906,930.2578 Q214.2813,930.1016 214.7031,929.6641 Q214.9688,929.3984 215.1094,929.3203 Q215.2656,929.2422 215.4688,929.2422 Q215.7969,929.2422 216.0469,929.5078 Q216.3125,929.7578 216.3125,930.1016 Q216.3125,930.4453 215.9688,930.8516 Q215.4688,931.4297 214.6719,931.7578 Q213.5938,932.2109 212.2969,932.2109 Q210.7813,932.2109 209.5781,931.5859 Q208.5938,931.0859 207.9063,930.0234 Q207.2188,928.9453 207.2188,927.6641 L207.2188,926.5078 Q207.2188,925.1797 207.8281,924.0391 Q208.4531,922.8828 209.5469,922.2734 Q210.6406,921.6484 211.875,921.6484 Q212.6094,921.6484 213.25,921.8203 Q213.9063,921.9766 214.4531,922.3359 Z " fill="#000000"/><text fill="#000000" font-family="sans-serif" font-size="12" font-style="italic" lengthAdjust="spacing" textLength="42.6797" x="255.2026" y="922.5664">&#171;Utility&#187;</text><text fill="#000000" font-family="sans-serif" font-size="14" lengthAdjust="spacing" textLength="88.71" x="232.1875" y="939.7363">ValidationUtils</text><line style="stroke:#2E7D32;stroke-width:0.5;" x1="123" x2="397.585" y1="947.8125" y2="947.8125"/><line style="stroke:#2E7D32;stroke-width:0.5;" x1="123" x2="397.585" y1="955.8125" y2="955.8125"/><ellipse cx="133" cy="970.1172" fill="#84BE84" rx="3" ry="3" style="stroke:#038048;stroke-width:1;"/><text fill="#000000" font-family="sans-serif" font-size="14" lengthAdjust="spacing" text-decoration="underline" textLength="197.6816" x="142" y="974.3457">validateRequired(field): boolean</text><ellipse cx="133" cy="987.7266" fill="#84BE84" rx="3" ry="3" style="stroke:#038048;stroke-width:1;"/><text fill="#000000" font-family="sans-serif" font-size="14" lengthAdjust="spacing" text-decoration="underline" textLength="250.585" x="142" y="991.9551">validateCredentials(user, pass): boolean</text><ellipse cx="133" cy="1005.3359" fill="#84BE84" rx="3" ry="3" style="stroke:#038048;stroke-width:1;"/><text fill="#000000" font-family="sans-serif" font-size="14" lengthAdjust="spacing" text-decoration="underline" textLength="160.3027" x="142" y="1009.5645">sanitizeInput(input): string</text></g><!--class UsuarioComum--><g id="elem_UsuarioComum"><rect codeLine="151" fill="#E8F5E8" height="76.3125" id="UsuarioComum" rx="2.5" ry="2.5" style="stroke:#2E7D32;stroke-width:0.5;" width="188.6475" x="1447" y="1236.1094"/><ellipse cx="1488.7297" cy="1257.4609" fill="#ADD1B2" rx="11" ry="11" style="stroke:#181818;stroke-width:1;"/><path d="M1491.4954,1253.3359 Q1491.6516,1253.1172 1491.8391,1253.0078 Q1492.0266,1252.8984 1492.2454,1252.8984 Q1492.6204,1252.8984 1492.8547,1253.1641 Q1493.0891,1253.4141 1493.0891,1254.0234 L1493.0891,1255.4766 Q1493.0891,1256.0859 1492.8547,1256.3516 Q1492.6204,1256.6172 1492.2454,1256.6172 Q1491.9016,1256.6172 1491.6985,1256.4141 Q1491.4954,1256.2266 1491.386,1255.7109 Q1491.3391,1255.3516 1491.1516,1255.1641 Q1490.8235,1254.7891 1490.2141,1254.5703 Q1489.6047,1254.3516 1488.9797,1254.3516 Q1488.2141,1254.3516 1487.5735,1254.6797 Q1486.9485,1255.0078 1486.4485,1255.7578 Q1485.9641,1256.5078 1485.9641,1257.5391 L1485.9641,1258.6328 Q1485.9641,1259.8672 1486.8547,1260.6953 Q1487.7454,1261.5078 1489.3391,1261.5078 Q1490.2766,1261.5078 1490.9329,1261.2578 Q1491.3235,1261.1016 1491.7454,1260.6641 Q1492.011,1260.3984 1492.1516,1260.3203 Q1492.3079,1260.2422 1492.511,1260.2422 Q1492.8391,1260.2422 1493.0891,1260.5078 Q1493.3547,1260.7578 1493.3547,1261.1016 Q1493.3547,1261.4453 1493.011,1261.8516 Q1492.511,1262.4297 1491.7141,1262.7578 Q1490.636,1263.2109 1489.3391,1263.2109 Q1487.8235,1263.2109 1486.6204,1262.5859 Q1485.636,1262.0859 1484.9485,1261.0234 Q1484.261,1259.9453 1484.261,1258.6641 L1484.261,1257.5078 Q1484.261,1256.1797 1484.8704,1255.0391 Q1485.4954,1253.8828 1486.5891,1253.2734 Q1487.6829,1252.6484 1488.9172,1252.6484 Q1489.6516,1252.6484 1490.2922,1252.8203 Q1490.9485,1252.9766 1491.4954,1253.3359 Z " fill="#000000"/><text fill="#000000" font-family="sans-serif" font-size="12" font-style="italic" lengthAdjust="spacing" textLength="43.3594" x="1535.614" y="1253.5664">&#171;Entity&#187;</text><text fill="#000000" font-family="sans-serif" font-size="14" lengthAdjust="spacing" textLength="97.248" x="1508.6697" y="1270.7363">UsuarioComum</text><line style="stroke:#2E7D32;stroke-width:0.5;" x1="1448" x2="1634.6475" y1="1278.8125" y2="1278.8125"/><line style="stroke:#2E7D32;stroke-width:0.5;" x1="1448" x2="1634.6475" y1="1286.8125" y2="1286.8125"/><ellipse cx="1458" cy="1301.1172" fill="#84BE84" rx="3" ry="3" style="stroke:#038048;stroke-width:1;"/><text fill="#000000" font-family="sans-serif" font-size="14" lengthAdjust="spacing" textLength="162.6475" x="1467" y="1305.3457">podeEmprestar(): boolean</text></g><!--class Administrador--><g id="elem_Administrador"><rect codeLine="155" fill="#E8F5E8" height="93.9219" id="Administrador" rx="2.5" ry="2.5" style="stroke:#2E7D32;stroke-width:0.5;" width="236.1162" x="1175.5" y="1227.1094"/><ellipse cx="1246.1255" cy="1248.4609" fill="#ADD1B2" rx="11" ry="11" style="stroke:#181818;stroke-width:1;"/><path d="M1248.8911,1244.3359 Q1249.0474,1244.1172 1249.2349,1244.0078 Q1249.4224,1243.8984 1249.6411,1243.8984 Q1250.0161,1243.8984 1250.2505,1244.1641 Q1250.4849,1244.4141 1250.4849,1245.0234 L1250.4849,1246.4766 Q1250.4849,1247.0859 1250.2505,1247.3516 Q1250.0161,1247.6172 1249.6411,1247.6172 Q1249.2974,1247.6172 1249.0942,1247.4141 Q1248.8911,1247.2266 1248.7817,1246.7109 Q1248.7349,1246.3516 1248.5474,1246.1641 Q1248.2192,1245.7891 1247.6099,1245.5703 Q1247.0005,1245.3516 1246.3755,1245.3516 Q1245.6099,1245.3516 1244.9692,1245.6797 Q1244.3442,1246.0078 1243.8442,1246.7578 Q1243.3599,1247.5078 1243.3599,1248.5391 L1243.3599,1249.6328 Q1243.3599,1250.8672 1244.2505,1251.6953 Q1245.1411,1252.5078 1246.7349,1252.5078 Q1247.6724,1252.5078 1248.3286,1252.2578 Q1248.7192,1252.1016 1249.1411,1251.6641 Q1249.4067,1251.3984 1249.5474,1251.3203 Q1249.7036,1251.2422 1249.9067,1251.2422 Q1250.2349,1251.2422 1250.4849,1251.5078 Q1250.7505,1251.7578 1250.7505,1252.1016 Q1250.7505,1252.4453 1250.4067,1252.8516 Q1249.9067,1253.4297 1249.1099,1253.7578 Q1248.0317,1254.2109 1246.7349,1254.2109 Q1245.2192,1254.2109 1244.0161,1253.5859 Q1243.0317,1253.0859 1242.3442,1252.0234 Q1241.6567,1250.9453 1241.6567,1249.6641 L1241.6567,1248.5078 Q1241.6567,1247.1797 1242.2661,1246.0391 Q1242.8911,1244.8828 1243.9849,1244.2734 Q1245.0786,1243.6484 1246.313,1243.6484 Q1247.0474,1243.6484 1247.688,1243.8203 Q1248.3442,1243.9766 1248.8911,1244.3359 Z " fill="#000000"/><text fill="#000000" font-family="sans-serif" font-size="12" font-style="italic" lengthAdjust="spacing" textLength="43.3594" x="1288.1284" y="1244.5664">&#171;Entity&#187;</text><text fill="#000000" font-family="sans-serif" font-size="14" lengthAdjust="spacing" textLength="86.3652" x="1266.6255" y="1261.7363">Administrador</text><line style="stroke:#2E7D32;stroke-width:0.5;" x1="1176.5" x2="1410.6162" y1="1269.8125" y2="1269.8125"/><line style="stroke:#2E7D32;stroke-width:0.5;" x1="1176.5" x2="1410.6162" y1="1277.8125" y2="1277.8125"/><ellipse cx="1186.5" cy="1292.1172" fill="#84BE84" rx="3" ry="3" style="stroke:#038048;stroke-width:1;"/><text fill="#000000" font-family="sans-serif" font-size="14" lengthAdjust="spacing" textLength="210.1162" x="1195.5" y="1296.3457">podeGerenciarSistema(): boolean</text><ellipse cx="1186.5" cy="1309.7266" fill="#84BE84" rx="3" ry="3" style="stroke:#038048;stroke-width:1;"/><text fill="#000000" font-family="sans-serif" font-size="14" lengthAdjust="spacing" textLength="189.123" x="1195.5" y="1313.9551">podeVisualizarLogs(): boolean</text></g><g id="elem_GMN31"><path d="M1109,628.1094 L1109,703.5156 A0,0 0 0 0 1109,703.5156 L1229.84,703.5156 L1273.47,843.3294 L1237.84,703.5156 L1338.0952,703.5156 A0,0 0 0 0 1338.0952,703.5156 L1338.0952,638.1094 L1328.0952,628.1094 L1109,628.1094 A0,0 0 0 0 1109,628.1094 " fill="#FEFFDD" style="stroke:#181818;stroke-width:0.5;"/><path d="M1328.0952,628.1094 L1328.0952,638.1094 L1338.0952,638.1094 L1328.0952,628.1094 " fill="#FEFFDD" style="stroke:#181818;stroke-width:0.5;"/><text fill="#000000" font-family="sans-serif" font-size="13" font-weight="bold" lengthAdjust="spacing" textLength="208.0952" x="1115" y="646.6045">Classe base para autentica&#195;&#167;&#195;&#163;o</text><text fill="#000000" font-family="sans-serif" font-size="13" lengthAdjust="spacing" textLength="171.9707" x="1115" y="662.9561">- Armazena credenciais e tipo</text><text fill="#000000" font-family="sans-serif" font-size="13" lengthAdjust="spacing" textLength="171.9834" x="1115" y="679.3076">- Controla estado ativo/inativo</text><text fill="#000000" font-family="sans-serif" font-size="13" lengthAdjust="spacing" textLength="174.1606" x="1115" y="695.6592">- Base para especializa&#195;&#167;&#195;&#163;o</text></g><g id="elem_GMN34"><path d="M905,1244.6094 L905,1303.6641 A0,0 0 0 0 905,1303.6641 L988.37,1303.6641 L852.88,1469.5394 L996.37,1303.6641 L1127.7539,1303.6641 A0,0 0 0 0 1127.7539,1303.6641 L1127.7539,1254.6094 L1117.7539,1244.6094 L905,1244.6094 A0,0 0 0 0 905,1244.6094 " fill="#FEFFDD" style="stroke:#181818;stroke-width:0.5;"/><path d="M1117.7539,1244.6094 L1117.7539,1254.6094 L1127.7539,1254.6094 L1117.7539,1244.6094 " fill="#FEFFDD" style="stroke:#181818;stroke-width:0.5;"/><text fill="#000000" font-family="sans-serif" font-size="13" font-weight="bold" lengthAdjust="spacing" textLength="184.209" x="911" y="1263.1045">Entidade principal do sistema</text><text fill="#000000" font-family="sans-serif" font-size="13" lengthAdjust="spacing" textLength="146.7007" x="911" y="1279.4561">- Controla disponibilidade</text><text fill="#000000" font-family="sans-serif" font-size="13" lengthAdjust="spacing" textLength="201.7539" x="911" y="1295.8076">- Estado muda com empr&#195;&#169;stimos</text></g><g id="elem_GMN37"><path d="M661.5,931.6094 L661.5,990.6641 A0,0 0 0 0 661.5,990.6641 L765.5,990.6641 L769.5,1156.5294 L773.5,990.6641 L877.8745,990.6641 A0,0 0 0 0 877.8745,990.6641 L877.8745,941.6094 L867.8745,931.6094 L661.5,931.6094 A0,0 0 0 0 661.5,931.6094 " fill="#FEFFDD" style="stroke:#181818;stroke-width:0.5;"/><path d="M867.8745,931.6094 L867.8745,941.6094 L877.8745,941.6094 L867.8745,931.6094 " fill="#FEFFDD" style="stroke:#181818;stroke-width:0.5;"/><text fill="#000000" font-family="sans-serif" font-size="13" font-weight="bold" lengthAdjust="spacing" textLength="162.1001" x="667.5" y="950.1045">Registro de transa&#195;&#167;&#195;&#181;es</text><text fill="#000000" font-family="sans-serif" font-size="13" lengthAdjust="spacing" textLength="143.7808" x="667.5" y="966.4561">- Log hist&#195;&#179;rico completo</text><text fill="#000000" font-family="sans-serif" font-size="13" lengthAdjust="spacing" textLength="195.3745" x="667.5" y="982.8076">- Rastreamento de devolu&#195;&#167;&#195;&#181;es</text></g><g id="elem_GMN40"><path d="M779,636.1094 L779,661.6094 L744.26,665.6094 L779,669.6094 L779,695.1641 A0,0 0 0 0 779,695.1641 L1049.5581,695.1641 A0,0 0 0 0 1049.5581,695.1641 L1049.5581,646.1094 L1039.5581,636.1094 L779,636.1094 A0,0 0 0 0 779,636.1094 " fill="#FEFFDD" style="stroke:#181818;stroke-width:0.5;"/><path d="M1039.5581,636.1094 L1039.5581,646.1094 L1049.5581,646.1094 L1039.5581,636.1094 " fill="#FEFFDD" style="stroke:#181818;stroke-width:0.5;"/><text fill="#000000" font-family="sans-serif" font-size="13" font-weight="bold" lengthAdjust="spacing" textLength="119.9009" x="785" y="654.6045">Controller principal</text><text fill="#000000" font-family="sans-serif" font-size="13" lengthAdjust="spacing" textLength="249.5581" x="785" y="670.9561">- Gerencia todas as opera&#195;&#167;&#195;&#181;es b&#195;&#161;sicas</text><text fill="#000000" font-family="sans-serif" font-size="13" lengthAdjust="spacing" textLength="203.2456" x="785" y="687.3076">- Mant&#195;&#169;m estado da aplica&#195;&#167;&#195;&#163;o</text></g><g id="elem_GMN43"><path d="M347.5,384.6094 L347.5,410.1094 L312.1,414.1094 L347.5,418.1094 L347.5,443.6641 A0,0 0 0 0 347.5,443.6641 L553.0137,443.6641 A0,0 0 0 0 553.0137,443.6641 L553.0137,394.6094 L543.0137,384.6094 L347.5,384.6094 A0,0 0 0 0 347.5,384.6094 " fill="#FEFFDD" style="stroke:#181818;stroke-width:0.5;"/><path d="M543.0137,384.6094 L543.0137,394.6094 L553.0137,394.6094 L543.0137,384.6094 " fill="#FEFFDD" style="stroke:#181818;stroke-width:0.5;"/><text fill="#000000" font-family="sans-serif" font-size="13" font-weight="bold" lengthAdjust="spacing" textLength="184.5137" x="353.5" y="403.1045">Opera&#195;&#167;&#195;&#181;es administrativas</text><text fill="#000000" font-family="sans-serif" font-size="13" lengthAdjust="spacing" textLength="180.8193" x="353.5" y="419.4561">- Requer privil&#195;&#169;gios especiais</text><text fill="#000000" font-family="sans-serif" font-size="13" lengthAdjust="spacing" textLength="178.5088" x="353.5" y="435.8076">- Funcionalidades avan&#195;&#167;adas</text></g><!--reverse link BibliotecaController to Livro--><g id="link_BibliotecaController_Livro"><path codeLine="130" d="M575.2469,777.5974 C572.8469,787.5874 573.41,785.9294 571.5,795.6094 C543.01,940.1294 528.79,981.5694 554.5,1126.6094 C576.39,1250.0994 594.76,1279.7594 651.5,1391.6094 C664.78,1417.7894 681.2,1444.7894 697.51,1469.5594 " fill="none" id="BibliotecaController-backto-Livro" style="stroke:#1976D2;stroke-width:1;"/><polygon fill="#1976D2" points="578.05,765.9294,572.7591,770.829,575.2469,777.5974,580.5378,772.6978,578.05,765.9294" style="stroke:#1976D2;stroke-width:1;"/><text fill="#000000" font-family="sans-serif" font-size="13" lengthAdjust="spacing" textLength="49.8672" x="555.5" y="1123.1045">gerencia</text></g><!--reverse link BibliotecaController to Usuario--><g id="link_BibliotecaController_Usuario"><path codeLine="131" d="M755.0056,763.1409 C760.7956,765.8409 755.72,763.2994 761.5,765.6094 C846.43,799.4894 1082.8,804.6094 1165.5,843.6094 C1171.53,846.4494 1177.52,849.6194 1183.44,853.0194 " fill="none" id="BibliotecaController-backto-Usuario" style="stroke:#1976D2;stroke-width:1;"/><polygon fill="#1976D2" points="744.13,758.0694,747.8773,764.2304,755.0056,763.1409,751.2583,756.9799,744.13,758.0694" style="stroke:#1976D2;stroke-width:1;"/><text fill="#000000" font-family="sans-serif" font-size="13" lengthAdjust="spacing" textLength="46.249" x="1040.5" y="810.1045">controla</text></g><!--reverse link BibliotecaController to Emprestimo--><g id="link_BibliotecaController_Emprestimo"><path codeLine="132" d="M582.9668,777.641 C568.9068,863.321 561.41,977.1394 599.5,1078.6094 C614.24,1117.8694 640.89,1154.3894 668.78,1184.9494 " fill="none" id="BibliotecaController-backto-Emprestimo" style="stroke:#1976D2;stroke-width:1;"/><polygon fill="#1976D2" points="584.91,765.7994,579.9912,771.0725,582.9668,777.641,587.8856,772.3679,584.91,765.7994" style="stroke:#1976D2;stroke-width:1;"/><text fill="#000000" font-family="sans-serif" font-size="13" lengthAdjust="spacing" textLength="43.3481" x="600.5" y="966.6045">registra</text></g><!--link AdminController to BibliotecaController--><g id="link_AdminController_BibliotecaController"><path codeLine="135" d="M289.39,487.6094 C345.71,519.0494 406.4811,552.9647 463.6411,584.8747 " fill="none" id="AdminController-to-BibliotecaController" style="stroke:#1976D2;stroke-width:1;stroke-dasharray:7.0,7.0;"/><polygon fill="#1976D2" points="468.88,587.7994,462.9714,579.9198,464.5142,585.3622,459.0718,586.905,468.88,587.7994" style="stroke:#1976D2;stroke-width:1;"/><text fill="#000000" font-family="sans-serif" font-size="13" lengthAdjust="spacing" textLength="20.96" x="371.5" y="532.1045">usa</text></g><!--link AuthController to Usuario--><g id="link_AuthController_Usuario"><path codeLine="136" d="M1476.41,730.2994 C1451.92,763.4194 1424.7669,800.1448 1396.2069,838.7748 " fill="none" id="AuthController-to-Usuario" style="stroke:#1976D2;stroke-width:1;stroke-dasharray:7.0,7.0;"/><polygon fill="#1976D2" points="1392.64,843.5994,1401.2068,838.7404,1395.6125,839.5789,1394.774,833.9845,1392.64,843.5994" style="stroke:#1976D2;stroke-width:1;"/><text fill="#000000" font-family="sans-serif" font-size="13" lengthAdjust="spacing" textLength="52.7617" x="1428.5" y="810.1045">autentica</text></g><!--link WebInterface to BibliotecaController--><g id="link_WebInterface_BibliotecaController"><path codeLine="137" d="M729.77,262.6194 C717.73,328.3194 699.93,413.6594 677.5,487.6094 C669.72,513.2694 661.968,534.8444 651.978,559.9544 " fill="none" id="WebInterface-to-BibliotecaController" style="stroke:#1976D2;stroke-width:1;stroke-dasharray:7.0,7.0;"/><polygon fill="#1976D2" points="649.76,565.5294,656.8037,558.6456,651.6083,560.8836,649.3704,555.6882,649.76,565.5294" style="stroke:#1976D2;stroke-width:1;"/><text fill="#000000" font-family="sans-serif" font-size="13" lengthAdjust="spacing" textLength="83.8081" x="714.5" y="419.6045">comunica com</text></g><!--link WebInterface to AdminController--><g id="link_WebInterface_AdminController"><path codeLine="138" d="M604.41,217.8894 C515.94,256.7094 407.9544,304.0987 317.7444,343.6787 " fill="none" id="WebInterface-to-AdminController" style="stroke:#1976D2;stroke-width:1;stroke-dasharray:7.0,7.0;"/><polygon fill="#1976D2" points="312.25,346.0894,322.0987,346.1363,316.8287,344.0805,318.8845,338.8104,312.25,346.0894" style="stroke:#1976D2;stroke-width:1;"/><text fill="#000000" font-family="sans-serif" font-size="13" lengthAdjust="spacing" textLength="83.8081" x="419.5" y="307.1045">comunica com</text></g><!--link APIEndpoints to BibliotecaController--><g id="link_APIEndpoints_BibliotecaController"><path codeLine="139" d="M400.21,200.1594 C460.96,230.5194 531.31,276.7794 570.5,340.6094 C611.66,407.6494 618.9277,491.4123 616.7977,559.4523 " fill="none" id="APIEndpoints-to-BibliotecaController" style="stroke:#1976D2;stroke-width:1;stroke-dasharray:7.0,7.0;"/><polygon fill="#1976D2" points="616.61,565.4494,620.8896,556.5789,616.7664,560.4518,612.8936,556.3286,616.61,565.4494" style="stroke:#1976D2;stroke-width:1;"/><text fill="#000000" font-family="sans-serif" font-size="13" lengthAdjust="spacing" textLength="44.3511" x="614.5" y="419.6045">exp&#195;&#181;e</text></g><!--link APIEndpoints to AdminController--><g id="link_APIEndpoints_AdminController"><path codeLine="140" d="M238.38,254.1194 C224.14,282.8294 211.5156,308.254 198.2356,335.034 " fill="none" id="APIEndpoints-to-AdminController" style="stroke:#1976D2;stroke-width:1;stroke-dasharray:7.0,7.0;"/><polygon fill="#1976D2" points="195.57,340.4094,203.152,334.1234,197.7913,335.9299,195.9848,330.5693,195.57,340.4094" style="stroke:#1976D2;stroke-width:1;"/><text fill="#000000" font-family="sans-serif" font-size="13" lengthAdjust="spacing" textLength="44.3511" x="217.5" y="307.1045">exp&#195;&#181;e</text></g><!--link Emprestimo to Livro--><g id="link_Emprestimo_Livro"><path codeLine="143" d="M769.5,1391.9494 C769.5,1417.5294 769.5,1438.3694 769.5,1463.1894 " fill="none" id="Emprestimo-to-Livro" style="stroke:#1976D2;stroke-width:1;"/><polygon fill="#1976D2" points="769.5,1469.1894,773.5,1460.1894,769.5,1464.1894,765.5,1460.1894,769.5,1469.1894" style="stroke:#1976D2;stroke-width:1;"/><text fill="#000000" font-family="sans-serif" font-size="13" lengthAdjust="spacing" textLength="62.8608" x="770.5" y="1436.1045">refere-se a</text></g><!--link Emprestimo to Usuario--><g id="link_Emprestimo_Usuario"><path codeLine="144" d="M870.26,1167.8494 C875.91,1163.8194 881.67,1160.0394 887.5,1156.6094 C953.35,1117.9294 978.92,1129.0794 1052.5,1108.6094 C1102.56,1094.6894 1119.29,1102.3794 1165.5,1078.6094 C1171.43,1075.5594 1172.2129,1075.346 1178.0529,1071.796 " fill="none" id="Emprestimo-to-Usuario" style="stroke:#1976D2;stroke-width:1;"/><polygon fill="#1976D2" points="1183.18,1068.6794,1173.4117,1069.9363,1178.9075,1071.2766,1177.5672,1076.7723,1183.18,1068.6794" style="stroke:#1976D2;stroke-width:1;"/><text fill="#000000" font-family="sans-serif" font-size="13" lengthAdjust="spacing" textLength="61.4326" x="1053.5" y="1123.1045">pertence a</text></g><!--link Usuario to Emprestimo--><g id="link_Usuario_Emprestimo"><path codeLine="145" d="M1194.9,1078.7594 C1171.66,1097.4494 1146.09,1114.5694 1119.5,1126.6094 C1024.78,1169.4794 980.95,1111.0294 887.5,1156.6094 C881.55,1159.5094 875.71,1162.8294 870.02,1166.4794 " fill="none" id="Usuario-Emprestimo" style="stroke:#1976D2;stroke-width:1;"/><text fill="#000000" font-family="sans-serif" font-size="13" lengthAdjust="spacing" textLength="38.2954" x="1149.5" y="1123.1045">realiza</text><text fill="#000000" font-family="sans-serif" font-size="13" lengthAdjust="spacing" textLength="7.23" x="1180.8858" y="1099.9282">1</text><text fill="#000000" font-family="sans-serif" font-size="13" lengthAdjust="spacing" textLength="19.5127" x="878.1149" y="1155.5033">0..*</text></g><!--reverse link Usuario to UsuarioComum--><g id="link_Usuario_UsuarioComum"><path codeLine="148" d="M1405.5223,1093.16 C1447.5923,1148.83 1484.17,1197.2294 1513.45,1235.9794 " fill="none" id="Usuario-backto-UsuarioComum" style="stroke:#1976D2;stroke-width:1;"/><polygon fill="none" points="1394.67,1078.7994,1400.7355,1096.7774,1410.3092,1089.5425,1394.67,1078.7994" style="stroke:#1976D2;stroke-width:1;"/></g><!--reverse link Usuario to Administrador--><g id="link_Usuario_Administrador"><path codeLine="149" d="M1300.8696,1096.7837 C1298.7196,1148.3137 1297.06,1187.9494 1295.43,1226.9594 " fill="none" id="Usuario-backto-Administrador" style="stroke:#1976D2;stroke-width:1;"/><polygon fill="none" points="1301.62,1078.7994,1294.8748,1096.5336,1306.8644,1097.0338,1301.62,1078.7994" style="stroke:#1976D2;stroke-width:1;"/></g><!--link BibliotecaController to DatabaseSimulator--><g id="link_BibliotecaController_DatabaseSimulator"><path codeLine="161" d="M744.07,754.8894 C749.95,758.5294 755.78,762.1194 761.5,765.6094 C820.33,801.4994 839.4,803.5994 895.5,843.6094 C921.46,862.1294 943.8844,880.6258 966.7944,900.8758 " fill="none" id="BibliotecaController-to-DatabaseSimulator" style="stroke:#1976D2;stroke-width:1;stroke-dasharray:7.0,7.0;"/><polygon fill="#1976D2" points="971.29,904.8494,967.1957,895.8919,967.5437,901.538,961.8975,901.886,971.29,904.8494" style="stroke:#1976D2;stroke-width:1;"/><text fill="#000000" font-family="sans-serif" font-size="13" lengthAdjust="spacing" textLength="49.1309" x="848.5" y="810.1045">inicializa</text></g><!--link BibliotecaController to ValidationUtils--><g id="link_BibliotecaController_ValidationUtils"><path codeLine="162" d="M469.4,765.7094 C456.76,775.6094 444.29,785.6694 432.5,795.6094 C391.43,830.2394 351.9787,867.8929 318.8987,900.7229 " fill="none" id="BibliotecaController-to-ValidationUtils" style="stroke:#1976D2;stroke-width:1;stroke-dasharray:7.0,7.0;"/><polygon fill="#1976D2" points="314.64,904.9494,323.8457,901.4487,318.1889,901.4273,318.2104,895.7705,314.64,904.9494" style="stroke:#1976D2;stroke-width:1;"/><text fill="#000000" font-family="sans-serif" font-size="13" lengthAdjust="spacing" textLength="33.9663" x="433.5" y="810.1045">valida</text></g><!--link AdminController to ValidationUtils--><g id="link_AdminController_ValidationUtils"><path codeLine="163" d="M172.96,487.7594 C193.43,598.1794 230.8168,799.9198 249.1668,898.9498 " fill="none" id="AdminController-to-ValidationUtils" style="stroke:#1976D2;stroke-width:1;stroke-dasharray:7.0,7.0;"/><polygon fill="#1976D2" points="250.26,904.8494,252.5533,895.2712,249.349,899.9331,244.6872,896.7288,250.26,904.8494" style="stroke:#1976D2;stroke-width:1;"/><text fill="#000000" font-family="sans-serif" font-size="13" lengthAdjust="spacing" textLength="33.9663" x="224.5" y="671.1045">valida</text></g><!--SRC=[ZLZDRXit4BxhAGZt4CMsxCH54qT83AobTI90jWn9JjkJGU-EPIAxoot9LHAdFkL9YXwAz5haM1He7gYlq26Nt7yvSUn8uWp9RxwP-SYLOYe2ic1IGKn92EIONKMCAmWe6P0neoj1SyCeebA2xFNa6vQa58V95GtUh0JFad348ox8ToUU_bVn2FGayg57yEUuwUqVdlpW7-OsBa8GTlp0Vph-_i2CUqBmjtRuyREdJyO7lRlAyeXQ05VlK_1Qgv-S-8yE3pgTHntEe_6uszblEOyE_IUZPxtU0_BYnGiocdgBXRyWOv-SpiR-T4Rw_jboilpveJRtUZa55pAZWd7o_BcVAARU7nrPLWQ4XKF24cK_9Jo68MulMBAoGnAI6zeOeugj-P1SSHu1JUoWOYcl-mtComwvl6G9KvUNVHRkcYrsyrKVMlkQHYoaOYGWX2HWbCb-RgzliKEOzCAO9VsMGGEYGe-lEGljO0YoCNxd29cojVW6Ej2OHOsWICXaoXEsXgZ1G6Uu-H8kKeXJ0LBbaEeXXB3cqHewB4oEYotRLWcgOiQrLIPRyVhvlYp-Xg0ZpSrb5n6NnjIW8yjhgp4Xf8fUGh7hK0y0leEgtOIS1RHbRZ7fCErMjdlOGLmb-yYQCR2GjqbR8McPeBYrjcdOTnqTDPgTBUUpgK_wzjtKdzVwgfIh4K-Ku5440WakFrH8DY788PQULCzD_HtL6NGsswpEMfBe7CfaEfzKy7Vu4KbnAIeouQYC-0eR9vCW4geRC4NyRr7tCFoG1SfvCLsS1ftKp3J1LYhOZ7OdfhOaUYFPcEuhAg7lR4LbceR-Adik2egJ6K_SxhQvQlkvSiWzIlPQmF9OIpBBW9i4T_XwMW7lcs4rxLomDOjWXUdjMuOgnLYoaAcRRoSXKu0j7A2ATERJ5j1cSRL0d0etcoF8zwR22q1ANheB238XUMi2rXRFL2K-9pwjZfgSBVtvYJV2bZgUNPoDlNdzeFeHhYO97dxND01auLYVUrHKjShKyGaNyP2yMfvE_GXYA5GdfYnPGA2mHBhCLDVQPhlZLzxmjwSOELr1FyvVTr5E5bcW-QYhJCHfMBPBnQ0NcJgi7RRJ4cg7rQiWxJTtD6It9Duxd_X9c7BiVDb9dGllVBPOadt3enrvwUi14qNDf-Zr_GyilAkP39LTStA3QyBgHBDBRgvesht6VNFHg6zWzAHTN1VBoNIo_FBnlt_-da-yHRMedFWiM9n5L77TNnUAHTL3S8Tyq4Sd2-w8Fd8ODiqjtAU37Uwsxye9DIMlJ34XBFaOhcaMATdEvMlJiphv6gUy7s_Uu0hcy4l6iClxrmoYiDMaBVzS4JHsQNGarv3DyoJLaTx294cn_fZ-_s5n5oZoCVUdtcWoE_DEyHuwitbuG4OyJhbaNpx- -mV-_Su946ybO4MBaLxdORez6DZBsX0FRM4KRBEdk-SE2mtRx5kv4Wqn8ojCcA0QwXXII4B4zAVUJFQQ9zJUtb7tmJ_4Cv3s6bAklKjOXNJtQaftpv81ZxC49-WtxKbDR0t_cYRSimcyIp7Upz2UqDwWy4MgF3mUa2ERmy_uV5PXTJ0uAb8du1gJDv10QDEb92S5WUm4siSDRZtUGYUozMXlRtkhcJBTT2PZhq3GH8EW-xvC8J3jMAciul7drx96i22pk6uniPeo2BbeF3ePz_RTUOUaF0I_wrPVl-6uPJSjyTBMjh0Fm-qhg_PwpH2DZatWqI8RkpqWHYHklzPIEgrjITHNHcQPspolAKn3goQTJRBHsKh5sMo9Gkt_T3wTZBpbvBLJxGHt9egdX5_NxZBRs_ct04GZ9_f9kUod8kRjRNlOUoAcjv1W8vGt7rGT_PHgFInSIdJkGfu_rUwpnBnQd-DYA-YgB1GAek7MGPkgjv1rjaCQuYAeam5BQKHmAvbdkG1RGB4FbrSiChEisSy1nbbe-jfSmX709tk4TgCekyL2cUSYn_NtALYDYQmqRe442ulSe1iE_oLOmFL-QGJA4JAdk0HGVMio2-NFS1K5Q80HR7MZD9okcd9fBUkcOAa0v3e3mmgf9FZBKIWgqCaLlluciGYadN9A4ut_K-moYxJHDAgMoKQOZKAs26UDBMdHq_eBXf8zVGRdKU2jNqFG5tzNEipXEyaIynIJvnXNMrlvmW1BOFy3]--></g></svg>